<?xml version="1.0" encoding="utf-8"?>
<!-- Generator: Adobe Illustrator 23.0.1, SVG Export Plug-In . SVG Version: 6.00 Build 0)  -->
<svg version="1.1" id="Layer_1" xmlns="http://www.w3.org/2000/svg" xmlns:xlink="http://www.w3.org/1999/xlink" x="0px" y="0px"
	 viewBox="0 0 1920 1080" style="enable-background:new 0 0 1920 1080;" xml:space="preserve">
<style type="text/css">
	.st0{fill:#FFFFFF;}
</style>
<g>
	<path class="st0" d="M798.94,659.82c-0.9,3.05-1.46,6.32-2.74,9.11c-6.19,13.45-5.79,26.25,1.34,39.17
		c5.52,10,2.54,19.39-7.29,20.33c-21.94,2.1-43.67,2.17-58.19-23.89c-2.74-4.91-7.32-9.95-11.85-11.48
		c-24.57-8.3-31.63-33.74-39.3-58.1c-6.89-21.86-4.48-44.23,5.33-63.68c13.14-26.04,27.72-51.11,42.83-75.55
		c12.46-20.15,23.26-40.79,28.31-65.57c2.36-11.59,0.54-20.16-7.09-27.88c-10.13-10.25-21.12-16.11-34.57-15.77
		c-19.71,0.5-39.43,0.13-55.88,0.13c-16.11,22.97-29.41,46.61-46.48,65.17c-26.88,29.22-61.29,43.01-96.06,48.46
		c-84.75,13.27-159.63,58.47-234.35,103.22c-35.45,21.23-66.98,52.18-100.02,79.18c-44.09,36.03-91.41,64.51-140.3,89.38
		c-13.6,6.92-19.82,4.59-27.93-10.57C3.9,741.3,2.62,718.76,3.08,695.3c1.29-66.12,1.84-132.26,2.54-198.39
		c0.16-14.87-0.5-29.75-0.37-44.62c0.08-9.8,2.86-17.51,11.93-20.17c84.98-24.84,170.05-49.24,254.8-75.16
		c26.98-8.25,50.11-3.06,72.78,15.78c28.04,23.31,71.62,15.58,93.67-16.11c-8.32-9.35-16.69-18.74-27.27-30.63
		c-7.18,0.62-7.81-7.56-8.41-18.45c-0.99-17.86-5.54-35.54-5.73-53.33c-0.14-12.85,3.96-25.92,7.15-38.53
		c0.59-2.33,5.82-4.07,8.93-4.13c19.36-0.37,38.74-0.19,55.67-0.19c3.7-10.93,5.77-20.22,9.74-28.12
		c7.79-15.53,16.87-30.1,24.97-45.41c5.13-9.69,11.13-12.36,19.95-7.41c32.93,18.49,66.2,36.13,98.78,55.49
		c5.63,3.34,8.5,13.5,12.64,20.51c-0.93,1.48-1.87,2.97-2.8,4.45c4.18,0,8.36,0,12.54,0c186.46-0.04,372.92-0.03,559.38-0.22
		c14.58-0.01,29.18-2.29,43.75-2.01c41.14,0.8,82.27,2.91,123.41,3.45c21.76,0.29,43.54-2.57,65.29-2.22
		c22.23,0.36,44.42,3.5,66.65,4.33c17.86,0.66,35.8-1.29,53.64-0.32c22.48,1.22,44.86,5.65,67.33,6.17
		c44.22,1.02,88.46,0.3,133.11,0.3c1.32-9.94,2.49-20.19,4.1-30.34c0.76-4.74,1.89-12.88,3.69-13.23c5.07-1,10.67,0.76,15.84,2.45
		c1.86,0.61,3.94,3.84,4.46,6.33c5.9,28.42,25.19,27.25,42.87,27.78c27.69,0.83,55.42,0.55,83.13,0.03
		c8.47-0.16,12.13,2.3,11.77,13.54c-0.67,20.96-0.19,41.98-0.19,64.78c-16.21,0-31.12,0-46.03,0c-18.21,0-36.45-0.83-54.62,0.24
		c-16.89,1-33.69,4.16-50.56,6.08c-3.84,0.44-7.78-0.32-10.75-0.48c-6.19-5.73,3.37-24.67-14.2-18.88c0,20.09,0.07,40.61-0.02,61.13
		c-0.09,22.41-3.82,26.91-22.18,26.92c-133.81,0.02-267.61,0.01-401.42,0.01c-22.54,0-24.79-2.7-25.41-30.25
		c-0.06-2.81-0.38-5.62-0.67-9.77c-40.53,0-80.74,0-122.64,0c0-14.89,0-28.46,0-42.72c-6.21,0-10.72,0-16.37,0
		c0,167.55,0,334.36,0,502.01c-36.62,0-72.12,0-109.16,0c0-93.44,0-187.09,0-282.91c-23.89,0-46.28,0.15-68.66-0.04
		c-26.11-0.22-52.22-0.91-78.33-1c-7.05-0.03-14.25,0.49-21.11,2.26c-18.75,4.84-29.43,25.44-25.53,48.03
		c2.3,13.33-1.32,18.91-11.49,17.75c-21.85-2.49-36.04,19.73-28.19,44.51c1.67,5.27,4.3,10.16,6.85,14.95
		c4.25,7.98,1.61,14.01-3.93,18.21c-6.22,4.71-13.04,8.27-19.6,12.33c4.8-4.88,9.05-11.27,14.55-14.28
		c7.58-4.15,8.42-8.73,4.24-16.44c-1.72-3.18-3.3-6.53-4.59-10c-10.45-28.23,4.86-55.86,30.33-54.11c8.5,0.58,9.9-1.9,8.22-12.16
		c-4.95-30.21,11.6-53.93,37.07-54.66c5.36-0.15,10.73-0.02,16.87-0.02c0-11.2,0.32-20.27-0.06-29.3
		c-1.58-38.21-18.85-66.29-45.74-70.09c-17.87-2.52-36.17-0.48-54.67-0.48c-0.93,4.82-1.77,9.2-2.72,14.11
		c-9.33,0-18.08,0.86-26.66-0.24c-9.13-1.17-12.98,3.54-14.29,13.65c-3.75,28.88-16.84,51.73-30.87,74.74
		c-16.33,26.78-31.75,54.72-44.74,84c-8.24,18.57-5.62,40.47,2,59.75c7.22,18.26,13.41,37.95,32.73,43.9
		c5.25,1.62,10.84,7.1,13.89,12.71c12.3,22.67,30.88,24.32,50.06,22.94c13.95-1.01,14.32-2.99,7.89-17.88
		C785.31,690.07,787.94,671.7,798.94,659.82z M907.85,452.92c-0.82-25.27,7.03-45.23,24.78-57.86c-20.5,0-40.83,0-58.16,0
		c8.02,10.66,17.15,21.3,24.7,33.39c4.29,6.87,6,16.11,8.87,24.28c0,14.73,0,29.47,0,44.52c52.29,0,102.98,0,153.25,0
		c0-56.71,0-112.11,0-167.55c-135.31,0-269.67,0-405.51,0c1.21,15.52,2.31,29.56,3.51,44.98c19.78,0,38.69-0.18,57.59,0.06
		c15.15,0.19,30.27,4.26,39.23,19.43c12.45,21.1,28.54,13.64,43.86,14.57c0.93-6.46,1.59-11.01,2.4-16.65c10.6,0,20.54,0,30.04,0
		c-12.44-7.12-25.08-13.48-36.96-21.52c-6.37-4.31-10.55-8.91-18.71-2.68c-6.72,5.13-14.71,1.31-18.54-8.85
		c-3.58-9.5-0.89-16.88,6.02-21.99c7.28-5.38,14.82-3.46,18.67,4.86c11.11,24.07,30.55,33.16,50.09,34.78
		c36.12,2.99,72.54,0.81,108.83,0.69c7.38-0.03,9.06-5.71,8.9-13.51c-0.17-8.7-4.04-11.81-10.6-11.68
		c-15.43,0.32-30.88,0.05-46.28,1.11c-15.78,1.08-32.43-3.34-46.36,11.65c-2.46,2.64-11.16,0.23-14.74-3.24
		c-2.96-2.87-4.69-11.81-3.2-16.15c1.71-4.97,7.18-9.26,11.78-11.2c4.62-1.94,10.17-0.68,15.31-0.73
		c39.56-0.41,79.11-1.04,118.67-1.1c20.8-0.04,32.15,15.78,27.62,38.3c-1.24,6.15-4.76,11.62-7.26,17.46
		c3.83,1.16,7.66,2.26,11.46,3.49c20.57,6.67,35.26,30.26,33.69,54.05c-1.87,28.29-18.94,49.14-42.33,50.33
		c-16.18,0.82-32.46,0.98-48.61-0.2c-7.13-0.52-15.92-2.77-20.67-8.35C920.75,477.7,914.82,464.65,907.85,452.92z M34.8,771.06
		c53.83-26.56,105.02-58.05,152.86-97.47c31.32-25.81,61.56-54.53,95.15-75.05c47.43-28.98,97.28-52.31,146.6-76.54
		c18.4-9.04,37.9-16.75,57.47-19.96c39.14-6.41,77.87-15.37,110.74-42.07c31.53-25.61,60.38-56.31,56.21-110.44
		c-0.81-10.47-2.63-15.08-12.43-14.91c-41.55,0.75-83.11,0.81-124.66,0.38c-30.6-0.32-57.91,7.78-82.09,32.94
		c-27.35,28.46-69.75,30.26-96.79,5.06c-20.27-18.88-43.09-18.28-66.6-11.29c-79.89,23.78-159.8,47.48-239.72,71.08
		c-12.94,3.82-16.81,9.36-16.26,26.04c0.61,18.67,2.25,37.34,2.12,56c-0.42,61.35-1.45,122.69-2.21,184.03
		C14.84,725.46,19.87,749.91,34.8,771.06z M1154.21,286.84c-29.6,0-57.88,0-86.27,0c0,165.87,0,330.62,0,495.88
		c29.12,0,57.39,0,86.27,0C1154.21,617.13,1154.21,452.36,1154.21,286.84z M422.13,216.51c0,22.12,0,42.39,0,61.84
		c135.38,0,269.73,0,404.08,0c0.03-1.17,0.06-2.35,0.1-3.52c-3.68-0.27-7.37-0.77-11.05-0.78c-21.38-0.06-42.76,0.12-64.13-0.11
		c-4.26-0.05-9.58,0.1-12.5-2.73c-3.79-3.68-8.13-10.62-7.66-15.5c0.48-4.94,6.04-10.18,10.37-13.17c3.03-2.09,7.73-0.68,11.69-0.69
		c68.88-0.12,137.76-0.26,206.63-0.25c7.29,0,13.08-0.65,18.08-9.44c6.75-11.89,20.14-13.29,29.77-5.65
		c8.85,7.02,12.78,21.04,9.21,32.87c-3.7,12.27-15.87,19.96-27.12,17.17c-3.84-0.95-7.69-2.57-11.55-2.59
		c-35.63-0.17-71.26-0.11-106.88,0.06c-3.05,0.01-6.1,1.26-9.15,1.93c0.12,1.35,0.24,2.7,0.36,4.05c104.52,0,209.05,0,315.05,0
		c0,14.94,0,28.17,0,41.5c10.71,0,19.9,0,28.8,0c0-24.02,0-46.83,0-70.38c-27.37,0-53.86,0.79-80.3-0.27
		c-18.58-0.75-38.05-2.86-50.41-22.57c-6.18-9.86-12.45-11.95-21.66-11.94c-205.48,0.24-410.95,0.18-616.43,0.18
		C432.7,216.51,427.97,216.51,422.13,216.51z M1522.14,363.03c67.29,0,134.58,0.01,201.86-0.01c16.31-0.01,17.91-1.91,17.96-21.07
		c0.05-20.15,0.02-40.31,0.01-60.46c-0.01-24.61-0.54-25.29-20.4-25.31c-66.1-0.07-132.2-0.13-198.3-0.13
		c-67.29,0-134.57,0.06-201.86,0.14c-18,0.02-19.07,1.34-19.1,22.51c-0.04,20.15-0.05,40.31-0.05,60.46
		c0,22.88,0.8,23.88,19.21,23.88C1388.36,363.04,1455.25,363.03,1522.14,363.03z M431.64,323.62c201.38,0,402.07,0,602.77,0
		c0.01-1.3,0.01-2.61,0.02-3.91c-20.8,0-41.62-0.69-62.39,0.27c-11.52,0.54-19.8-0.78-17.13-18.55c-175.05,0-349.2,0-523.26,0
		C431.64,309.81,431.64,316.83,431.64,323.62z M1210.07,321.47c30.37,0,58.58,0,86.4,0c0-36.45,0-71.64,0-106.63
		c-24.48,0-47.98,0-72.14,0c0.96,15.19,1.33,29.31-12.71,35.37c-0.9,0.39-1.48,3.34-1.49,5.11
		C1210.04,277.21,1210.07,299.12,1210.07,321.47z M625.92,209.77c1.3-1.17,2.61-2.35,3.91-3.52c-3.22-5.77-5.36-14.28-9.83-16.87
		c-32.29-18.75-65.1-36.19-97.63-54.34c-6.96-3.88-11.72-2.56-15.96,5.35c-9,16.83-18.75,33.09-27.45,50.14
		c-2.56,5.02-2.65,11.9-4.15,19.25C526.69,209.77,576.31,209.77,625.92,209.77z M970.81,246.56c-1.23-0.33-2.37-0.89-3.51-0.89
		c-73.52-0.07-147.05-0.09-220.57-0.14c-6.73,0-11.87,2.47-11.96,11.86c-0.1,10.11,5.87,11.15,12.24,11.14
		c23.72-0.05,47.44-0.55,71.14,0.18c4.35,0.13,9.66,4.1,12.67,8.28c7.36,10.23,20.4,12.44,25.21,1.28
		c4.37-10.15,10.15-10.03,17.38-10c33.89,0.13,67.77,0.06,102.29,0.06C973.86,260.18,972.35,253.43,970.81,246.56z M1024.4,477.78
		c-6.23-8.54-4.16-25.53,3.88-31.28c7.48-5.35,8.81-11.89,5.59-21.39c-7.35-21.7-19.43-28.57-38.91-24.39
		c-15.64,3.35-26.62,13.67-35.28,28.48c-9.82,16.8-8.07,36.15,3.56,50.95c2.78,3.54,4.83,7.92,7.68,12.69
		C988.69,491.29,1008.51,498.21,1024.4,477.78z M1870.27,220.63c-1.6-0.02-3.19-0.04-4.79-0.05c0,10.74,0.48,21.53-0.28,32.19
		c-0.25,3.46-3.75,6.59-5.76,9.87c-2.25-3.41-5.88-6.51-6.46-10.29c-1.06-6.96-0.05-14.34-0.44-21.5
		c-0.21-3.81-1.56-7.53-2.39-11.29c-1.2,0.27-2.4,0.54-3.59,0.8c0,10.82,0.47,21.69-0.27,32.43c-0.24,3.45-3.65,6.58-5.62,9.85
		c-2.19-3.43-5.85-6.61-6.27-10.33c-0.96-8.47-0.14-17.22-0.49-25.83c-0.1-2.44-1.73-4.79-2.66-7.17c-1.15,0.26-2.29,0.53-3.44,0.79
		c0,13.88,0,27.76,0,40.91c-9.52,3.6-13.01,0.67-12.63-9.41c0.39-10.33,0.09-20.69,0.09-31.04c-1.27,0.05-2.54,0.09-3.81,0.14
		c0,22.01,0,44.01,0,66.26c36.36,0,72.04,0,107.39,0c0-23.03,0-44.85,0-66.66c-11.78,0-22.65,0-34.78,0
		c0,11.01,0.71,21.08-0.34,30.88c-0.44,4.13-4.58,7.68-7.04,11.5c-2.13-3.69-5.78-7.2-6.11-11.12
		C1869.69,241.33,1870.27,230.94,1870.27,220.63z M433.95,292.18c0.14,0.9,0.28,1.8,0.42,2.7c3.5,0,7.01,0,10.51,0
		c165.08,0,330.16,0.06,495.23-0.16c11.09-0.02,21.05-0.45,18.43,19.67c23.61,0,46.1-0.09,68.59,0.09c3.84,0.03,9.54-0.53,11.2,2.11
		c7.01,11.14,15.11,5.88,23.03,5.18c0-10.45,0-19.8,0-29.58C851.68,292.18,642.82,292.18,433.95,292.18z M1220.03,217.53
		c-48.24,0-96.53,0-145.42,0c8.33,18,20.89,27,40.77,27.48c28.87,0.7,57.76,0.22,86.64,0.18
		C1219.56,245.17,1223.23,239.57,1220.03,217.53z M856.49,348.88c30.86,0,59.65-0.57,88.38,0.74c3.51,0.16,8.6,10,9.57,16.14
		c1.2,7.67-2.01,14.89-10.51,15.29c-8.68,0.41-17.32,2.14-25.99,2.24c-27.59,0.3-55.19,0.11-82.78,0.11
		c5.93,3.5,12.04,5.58,18.14,5.61c41.48,0.15,82.97-0.07,124.45-0.38c3.47-0.03,7.17-0.95,10.34-2.63
		c9.53-5.04,13.51-14.8,12.1-26.72c-1.39-11.8-6.94-21.22-17.6-21.34c-42.6-0.47-85.21-0.2-128.7-0.2
		C855.1,342.94,856.03,346.88,856.49,348.88z M1761.59,293.02c15.29,0,29.26,0,43.3,0c0-26.89,0-52.79,0-79.6
		c-4.78,0.4-8.5,0.71-12.19,1.02c-0.72,7.17-1.32,13.09-2.06,20.48c-10.16,0-19.41,0-29.05,0
		C1761.59,255.03,1761.59,273.5,1761.59,293.02z M1659.81,250.88c23.15,0,44.87,0.2,66.59-0.09c9.79-0.13,16.53,3.63,20.07,15.66
		c1.07,3.63,5.82,5.67,10.56,9.96c0-19.04,0-33.16,0-47.18c-33.01,0-65.12,0-97.22,0C1659.81,236.79,1659.81,242.89,1659.81,250.88z
		 M963.59,491.88c-19.16-13.59-24.96-31.69-22.85-53.91c0.97-10.15-1-18.56-9.54-21.83c-5.21-2-17.81,13.41-18.31,21.26
		C910.7,472.09,929.58,494.1,963.59,491.88z M26.25,768.43C7.72,735.08,12.8,697.91,13.1,661.26c0.59-72.07,0.17-144.16,0.17-216.24
		c-1.67-0.04-3.35-0.09-5.02-0.13c0,7.71,0.04,15.42-0.01,23.12c-0.5,80.51-1.11,161.01-1.48,241.52
		C6.67,732.04,11.27,752.68,26.25,768.43z M1058.46,776.73c0.74-0.01,1.48-0.01,2.22-0.02c0-90.29,0-180.58,0-270.87
		c-0.74,0.01-1.48,0.01-2.22,0.02C1058.46,596.16,1058.46,686.45,1058.46,776.73z M647.36,331.41c0.11-0.76,0.21-1.53,0.32-2.29
		c-3.51,0-7.02,0-10.53,0c-62.89-0.01-125.78-0.11-188.67,0.14c-6.36,0.03-12.71,2.23-19.07,3.43c3.74,6.67,7.46,13.36,11.27,19.96
		c0.38,0.65,1.35,0.8,2.69,1.52c20.18-18.53,43.74-23.29,68.83-22.94C557.25,331.86,602.31,331.41,647.36,331.41z M422.76,294.35
		c-2.21-9.57-5.37-18.28-6.02-27.25c-1-13.76,0.02-27.72-0.53-41.56c-0.12-2.96-3.26-5.75-5.01-8.62c-1.39,2.79-3.95,5.57-3.97,8.38
		c-0.3,28.68-0.3,57.38,0,86.06c0.03,2.8,2.59,5.55,3.97,8.33c1.67-2.92,4.52-5.7,4.77-8.79
		C416.62,302.76,414.86,293.43,422.76,294.35z M992.7,268.02c11.09,0.34,17.74-7.34,17.52-18.52c-0.22-11.51-5.59-17.48-14.77-18.24
		c-8.49-0.7-16.24,8.36-15.87,18.55C980,261.1,985.56,266.74,992.7,268.02z M990.69,393.55c-25.97,3.97-53.77-9.24-71.23,21.88
		c6.61-0.94,13.6-2.04,20.61-2.89c8.47-1.03,17.35-0.24,25.31-3.18C973.66,406.31,981.07,399.75,990.69,393.55z M1051.39,778.19
		c0.23-0.24,0.46-0.47,0.69-0.71c0-89.22,0-178.44,0-267.66c-0.23,0-0.46,0-0.69,0C1051.39,599.28,1051.39,688.74,1051.39,778.19z
		 M1761.56,229.82c8.9,0,16.63,0,25.13,0c0-7.17,0-13.58,0-20.7c-8.69,0-16.72,0-25.13,0
		C1761.56,216.19,1761.56,222.32,1761.56,229.82z M608.21,287.38c0-0.27,0-0.54,0-0.81c-59.48,0-118.95,0-178.43,0
		c0,0.27,0,0.54,0,0.81C489.26,287.38,548.73,287.38,608.21,287.38z M1766.43,179.77c0,8.58,0,15.95,0,23.65c7.08,0,13.41,0,20.64,0
		C1783.96,189.92,1781.24,178.15,1766.43,179.77z M786.66,352.6c-7.01-6.55-11.5-13.74-14.64-12.96
		c-4.25,1.05-9.64,7.77-10.37,12.93c-0.51,3.61,5.85,12.04,9.34,12.21C775.11,364.98,779.45,358.6,786.66,352.6z M842.16,368.3
		c4.97-8.76,10.43-14.22,9.89-18.6c-0.55-4.5-6.63-9.99-10.95-11.03c-2.29-0.55-8.4,7.43-8.39,11.56
		C832.72,355.08,837.49,359.92,842.16,368.3z M663.23,381.82c-0.08,0.7-0.16,1.41-0.24,2.11c24.64,0,49.28,0,73.92,0
		c0.02-0.7,0.04-1.41,0.07-2.11C712.39,381.82,687.81,381.82,663.23,381.82z M942.97,418.69c0.78,15.34,1.53,30.07,2.39,47.1
		c3.2-17.68,5.87-32.39,8.54-47.1C951.16,418.69,947.34,418.69,942.97,418.69z M1841.45,220.06c-1,0.1-2.01,0.2-3.01,0.3
		c0,12.05,0,24.1,0,36.15c1-0.01,2.01-0.02,3.01-0.03C1841.45,244.34,1841.45,232.2,1841.45,220.06z M1823.37,217.8
		c-7.18,12.08-6.62,32.3,0,38.7C1823.37,244.08,1823.37,232.04,1823.37,217.8z M420.57,332.91c1.92,0.21,3.85,0.43,5.77,0.64
		c0.53-10.88,1.06-21.75,1.6-32.63c-2.03-0.2-4.05-0.39-6.08-0.58C421.42,311.2,420.99,322.06,420.57,332.91z M1037.21,451.89
		c-11.16-1.2-13.4,3.22-8.2,19.29C1031.63,465.01,1034.26,458.83,1037.21,451.89z M1878.49,220.69c-0.75,0.01-1.5,0.03-2.25,0.04
		c0,11.66,0,23.32,0,34.98c0.75-0.03,1.5-0.05,2.25-0.08C1878.49,243.98,1878.49,232.33,1878.49,220.69z M1859.76,220.64
		c-0.8,0.01-1.6,0.02-2.41,0.02c0,11.68,0,23.37,0,35.05c0.8-0.01,1.6-0.02,2.41-0.03C1859.76,244,1859.76,232.32,1859.76,220.64z"
		/>
	<path class="st0" d="M929.63,375.29c-3.01-0.27-5.35-1.46-5.52-3.85c-0.16-2.15,3.11-4.07,6.68-3.92c3.86,0.16,6.12,1.42,6.22,3.86
		C937.1,373.74,934.3,375.37,929.63,375.29z"/>
	<ellipse class="st0" cx="730.21" cy="379.31" rx="53.11" ry="0.12"/>
	<path class="st0" d="M790.93,399.37c10.35,0,20.7,0,31.04,0c-0.01,0.15-0.02,0.3-0.03,0.45c-10.37,0-20.74,0-31.12,0
		C790.86,399.67,790.9,399.52,790.93,399.37z"/>
	<path class="st0" d="M950,399.38c-2.84,1.29-4.89,2.81-6,2.59c-1.8-0.35-3.71-1.76-4.12-2.92c-0.21-0.59,2.65-2.19,4.23-2.25
		C945.6,396.74,947.25,398.1,950,399.38z M944.19,401.71c1.23-1.14,2.73-1.99,2.46-2.41c-0.47-0.75-2.03-1.26-3.13-1.86
		c-0.8,0.67-2.19,1.32-2.24,2C941.25,400.02,942.75,400.65,944.19,401.71z"/>
	<path class="st0" d="M928.54,392.33c-2.16,1.16-3.6,2.44-4.55,2.32c-1.49-0.19-2.65-1.33-3.96-2.07c1.16-0.69,2.2-1.81,3.51-1.94
		C924.72,390.52,926.2,391.49,928.54,392.33z"/>
</g>
</svg>
