<?xml version="1.0" encoding="utf-8"?>
<!-- Generator: Adobe Illustrator 23.0.1, SVG Export Plug-In . SVG Version: 6.00 Build 0)  -->
<svg version="1.1" id="Layer_1" xmlns="http://www.w3.org/2000/svg" xmlns:xlink="http://www.w3.org/1999/xlink" x="0px" y="0px"
	 viewBox="0 0 1920 386" style="enable-background:new 0 0 1920 386;" xml:space="preserve">
<style type="text/css">
	.st0{fill:#FFFFFF;}
</style>
<g>
	<g>
		<path class="st0" d="M59.68,250.03l-0.5-12.6l3.99-0.21c0.2,3.13,0.36,6.48,0.52,10.53l0.07,1.83l-1.97,0.25L59.68,250.03z"/>
		<path class="st0" d="M61.41,381.83c-0.6,0-1.12-0.12-1.54-0.28c-1.86-0.7-3.16-2.64-3.87-5.75c-3.26-14.27-6.57-28.98-9.84-43.74
			c-0.56-2.52-1-5.11-1.43-7.62c-0.21-1.24-0.43-2.48-0.65-3.72c-0.06-0.33-0.15-0.67-0.24-1c-0.21-0.81-0.45-1.72-0.42-2.72
			c0.12-5.21,0.29-10.51,0.46-15.63l0.22-6.76l5.66-0.96l0.21,2.13c0.2,1.97,0.52,4.04,0.83,6.03c0.72,4.59,1.46,9.34,0.89,13.83
			c-1.36,10.86,0.56,20.56,2.6,30.83c0.42,2.09,0.83,4.18,1.22,6.29c0.24,1.33,0.53,2.63,0.86,3.94c0-0.18,0-0.36,0-0.54
			c-0.02-8.91-0.05-18.13,0.05-27.19c0.09-8.43,0.26-17,0.42-25.28c0.24-12.04,0.48-24.48,0.5-36.71
			c0.08-46.47-3.85-95.05-11.7-144.38l-0.16-1.01c-2.03-12.78-4.13-25.99-9.39-36.93c-1.84-3.81-4.24-7.02-6.79-10.42
			c-0.43-0.58-0.87-1.16-1.31-1.75l0.83,5.75c1.03,7.19,2.07,14.37,3.13,21.55c0.27,1.79,0.59,3.61,0.9,5.37
			c0.34,1.93,0.7,3.92,0.99,5.91l0.48,3.31c1.65,11.46,3.35,23.31,4.89,35c1.02,7.69,2,15.53,2.94,23.1
			c0.84,6.74,1.68,13.49,2.56,20.22c0.51,3.93,1.14,7.31,1.91,10.35c4.22,16.68,5.03,30.88,2.54,44.68
			c-0.31,1.71-0.24,3.61-0.17,5.63c0.03,0.87,0.06,1.74,0.06,2.6l0.01,10.91l-3.62-9.51l-0.99,5.01l-0.58-8.73
			c-1.01-2.25-2.02-4.57-2.26-7.16c-1.18-12.78-2.27-25.78-3.33-38.36c-1.31-15.65-2.67-31.84-4.21-47.71
			c-1.1-11.26-2.99-22.59-4.81-33.55l-0.9-5.39c-0.19-1.13-0.84-2.42-1.47-3.67c-0.96-1.9-1.96-3.87-1.64-5.88
			c0.49-3.12-0.04-6.04-0.6-9.14c-0.61-3.33-1.23-6.77-0.64-10.67c0.61-3.97,0-8.56-0.59-13c-0.24-1.83-0.5-3.72-0.66-5.57
			c-0.5-5.47,1.12-8.92,5.25-11.19c2.26-1.24,4.4-2.92,6.68-4.7c1.46-1.14,2.97-2.33,4.53-3.39c0.36-0.24,0.72-0.5,1.08-0.75
			c2.06-1.45,4.39-3.1,6.94-3.37c8.09-0.85,16.31-1.56,24.27-2.25c9.2-0.8,18.71-1.62,28.05-2.66c8.09-0.9,16.32-2.06,24.27-3.19
			c8.8-1.25,17.9-2.53,26.88-3.48c9.59-1,19.34-1.77,28.78-2.5c11.67-0.91,23.74-1.85,35.57-3.26c11.5-1.37,23.19-3.36,34.49-5.28
			c7.44-1.26,15.13-2.57,22.71-3.7c5.42-0.8,10.93-1.33,16.26-1.83c4.29-0.41,8.73-0.83,13.06-1.39c5.42-0.7,10.93-1.57,16.27-2.41
			c10.04-1.58,20.41-3.21,30.7-3.85c13.17-0.82,26.53,0.27,39.46,1.33l1.19,0.1c17.07,1.39,35.25,1.44,52.62-7.58
			c11.42-5.93,22.85-12.8,33.91-19.45c6.02-3.62,12.24-7.36,18.4-10.91c5.39-3.11,10.9-6.13,16.23-9.06
			c5.24-2.88,10.67-5.85,15.95-8.9c4.29-2.47,8.46-5.18,12.49-7.8c1.33-0.86,2.63-1.71,3.89-2.52c-0.16-0.88-0.32-1.74-0.49-2.6
			c-0.55-2.89-1.07-5.63-1.35-8.49c-0.14-1.44-0.29-2.89-0.44-4.34c-0.65-6.21-1.32-12.63-1.14-18.96
			c0.12-4.26,0.69-8.49,1.42-12.67l-0.87-0.06l1.11-1.28c0.39-2.13,0.81-4.24,1.23-6.32l0.25-1.24c0.5-2.49,3.86-3.95,6-4
			c3.23-0.08,6.49-0.02,9.64,0.04c3.48,0.07,7.07,0.14,10.57,0.01c0.98-0.04,1.98-0.04,2.98-0.05c3.92-0.02,7.63-0.04,10.56-1.91
			c1.75-1.12,3.25-5.72,4.44-9.41c0.35-1.08,0.7-2.14,1.04-3.13l0.15-0.43c1.2-3.4,2.42-6.86,3.56-10.36l0.28-4.54l0.67,1.52
			c0.88-2.91,1.69-5.86,2.35-8.83c0.54-2.43,0.44-5.21,0.33-8.15c-0.08-2.13-0.16-4.33,0.01-6.47c0.42-5.35,1.39-7.76,2.17-8.9
			v-1.06l0.52,0.44c0.18-0.17,0.33-0.28,0.44-0.36c1.73-1.26,3.21-1.11,4.15-0.76c2.02,0.76,3.47,3.15,4.42,7.32l0.17,0.72
			c0.82,3.57,1.67,7.27,1.57,10.98c-0.1,3.51,0.59,4.51,0.89,4.77c0.33,0.29,0.95,0.36,1.85,0.23c3.86-0.59,8.01-1.26,12.11-2.17
			c9.18-2.03,18.05,0.26,26.63,2.48l0.73,0.19c1.03,0.27,2.12,0.39,3.27,0.52c0.57,0.06,1.14,0.13,1.71,0.21l1.31,0.19l-0.26-0.52
			h3.25c1.18,0,2.31,0.04,3.4,0.07c2.26,0.07,4.21,0.13,6.12-0.14c0.84-0.12,1.68-0.17,2.48-0.21c1.77-0.1,3.24-0.17,4.53-0.96
			l0.58-2.03l0.31,1.33c0.51-0.49,0.98-1.15,1.44-2.01c0.42-0.79,1.41-1.66,3.74-1.29c0.45,0.07,4.38,0.77,4.8,3.2
			c0.38,2.18,0.61,2.17,2.17,2.12c0.24-0.01,0.48-0.02,0.72-0.02l3.66-0.01c5.42,0,11.02-0.01,16.51-0.25
			c4.68-0.2,6.88,2.05,7.66,7.81c1.54,11.35,3.48,12.91,9.83,12.7c3.93-0.13,7.87-1.4,12.04-2.75c1.76-0.57,3.57-1.15,5.38-1.64
			c0.04-0.02,0.25-0.17,0.39-0.26c0.55-0.38,1.31-0.9,2.33-0.92c11.6-0.19,24.02-0.35,39.09-0.48c3.68-0.03,4.32-0.13,4.57-0.72
			l0.52-1.23l1.34,0.01c0.6,0,1.2,0,1.81-0.01l3.54,0.09l0.58,0.73c0.85,1.07,2.72,1.14,7.46,1.05c16.69-0.32,33.4-0.85,51.95-1.47
			c1.06-0.04,2.07-0.41,2.7-0.99c1.69-1.56,3.33-3.42,4.93-5.22c0.68-0.77,1.36-1.54,2.05-2.29l0.88-0.96
			c0.01-0.71,0.01-1.42,0.02-2.14l0.03-3.65l2.61,0.49c0.58,0.11,1.15,0.22,1.74,0.32l1.64,0.3l0,1.67c0.01,2,0.01,4.73,0.35,5.24
			c0.3,0.15,1.93,0.14,3.36,0.13c1.41-0.01,3.16-0.02,5.35,0.08c1.4,0.07,2.78,0.26,4.12,0.44c0.6,0.08,1.19,0.17,1.79,0.24
			l1.81,0.21l-0.16,6.3h-1.95c-1.1,0-2.2,0.03-3.31,0.07c-2.58,0.08-5.26,0.16-7.94-0.18c-0.61-0.08-1.41-0.1-1.78,0.23
			c-0.41,0.37-0.89,1.52-0.83,4.94c0.18,10.17,0.33,22.24,0.07,34.59c-0.06,2.81,0.23,4.5,0.88,5.17c0.15,0.16,0.62,0.65,2.6,0.62
			c32.23-0.15,67.46-0.13,110.87,0.06c21.24,0.09,42.84,0.24,63.73,0.39c24.29,0.17,49.4,0.35,74.1,0.43
			c43.19,0.15,87.11,0.2,129.59,0.25c16.4,0.02,32.79,0.04,49.19,0.06c1.84,0,3.92,0.01,4.25-0.33c0.52-0.51,0.52-3.7,0.52-7.39
			l0.01-4.98c0.01-4.78,0.01-9.56-0.02-14.34c-0.01-1.12,0.02-2.25,0.04-3.39c0.09-4.63,0.03-8.25-1.2-10.83l-1.7,0.05l1.33-0.75
			c-0.89-1.47-2.24-2.54-4.3-3.23l-2.86-0.96l4.54-5.15l9.18,5.56c0.29-0.19,0.58-0.38,0.88-0.59c1.54-1.04,3.14-2.12,5.02-2.43
			c1.6-0.27,2.1-0.86,2.41-1.79l0.7-2.08l2,0.89c0.54,0.24,1.13,0.44,1.82,0.61l1.09,0.28l0.33,1.08c0.72,2.36,1.98,3.82,6,3.82
			c12.92,0.01,25.84,0.04,38.75,0.07c9.71,0.02,19.42,0.05,29.13,0.06c3.97,0,7.92-0.01,11.88-0.03c4.05-0.02,8.1-0.04,12.14-0.03
			c2.69,0.01,4.27-0.11,4.69-0.68l0.78-1.07l1.29,0.29c0.99,0.23,1.8,0.36,2.57,0.28c0.12-0.01,0.24-0.02,0.36-0.03l0.73-0.05
			l0.59,0.44c0.09,0.07,0.36,0.17,1.42,0.17l10.78-0.04c32.5-0.13,66.1-0.27,99.15-0.14c6.1,0.02,12.2,0.04,18.3,0.06
			c37.29,0.12,75.86,0.24,113.78,1.6c3.06,0.11,6.18,1,9.2,1.85c3.32,0.94,6.73,1.91,9.99,1.81c0.65-0.02,1.73-0.84,2.68-1.56
			c0.78-0.59,1.59-1.21,2.49-1.68l0.62-0.33c1.54-0.83,3.29-1.76,5.21-1.78c9.65-0.11,21.1-0.18,32.86,0.19
			c1.84,0.06,3.36,1.23,4.7,2.26c0.57,0.44,1.11,0.85,1.61,1.14c0.33,0.19,0.66,0.4,0.99,0.61c0.66,0.42,1.48,0.94,1.92,0.96
			c3.31,0.13,6.71,0.11,9.99,0.09c1.95-0.01,3.89-0.02,5.84,0c7.42,0.07,10.47,4.12,11.73,9.3c0.05-8.63,0.06-17.74-0.11-26.75
			c-0.02-0.02-0.05-0.05-0.08-0.08l-0.75-0.78l0.24-1.06c0.26-1.14,0.5-2.3,0.74-3.47c0.21-1,0.41-2.01,0.64-3.03l0.06-0.25
			l0.12-0.23c0.92-1.79,1.76-3.69,2.49-5.66l0.14-0.3c1.12-1.93,2.43-3.62,3.91-5.03l0.23-0.22l0.28-0.14
			c2.51-1.21,5.31-1.59,7.79-1.93c1.17-0.16,2.27-0.31,3.21-0.53l0.51-0.12l0.5,0.14c5.6,1.61,11.53,2.59,17.61,2.93l0.9,0.05
			l0.56,0.71c3.17,4.02,4.98,9.55,5.23,16c0.34,8.87,0.35,17.89,0.36,26.62c0,3.79,0.01,7.58,0.04,11.37
			c0.03,4.36,0.58,5.08,0.69,5.19c0.48,0.19,2.7-0.54,3.42-0.78c5-1.63,10.2-1.39,15.23-1.16c1.39,0.06,2.78,0.13,4.16,0.15
			c1.62,0.03,3.11,0.51,4.55,0.97c1.15,0.37,2.24,0.72,3.23,0.78c4.7,0.24,15.07,0.32,23.41,0.37c4.3,0.03,8.14,0.06,10.55,0.1
			l1.88,0.03l0.08,1.88c0.02,0.4,0.09,1.1,0.17,1.8c0.04,0.36,0.08,0.72,0.11,1.05l0.36,0.27l-0.25,1.06
			c0.16,2.02-0.01,4.25-0.17,6.4c-0.11,1.47-0.23,2.98-0.23,4.36l0.28,0.01l0.22,1.93c0.13,1.37-0.03,2.76-0.18,4.1
			c-0.04,0.33-0.08,0.66-0.11,1l-0.15,1.48l-0.02,14.11c0,0.14,0.01,0.73,0.03,1.39l0.02,0.57l-0.29,0.5
			c-0.41,0.72-0.68,1.6-0.81,2.63l-0.18,1.5l-1.49,0.24c-0.87,0.14-1.89,0.22-3.21,0.25c-4.28,0.1-8.57,0.22-12.85,0.33
			c-6.53,0.18-13.28,0.36-19.92,0.48c-5.29,0.1-10.66,0.14-15.86,0.18c-3.48,0.03-6.95,0.05-10.42,0.1
			c-0.8,0.01-1.62,0.09-2.54,0.18c0,0.07,0,0.15,0,0.22c0,1.61,0,3.14-0.61,4.42c-1.86,3.85-3.46,6.78-5.92,6.83
			c-9.72,0.23-20.17,0.02-32.9-0.63c-1.84-0.09-3.19-2.09-4.11-4.24c-0.01,3.38,0.02,6.78,0.04,10.1c0.03,3.98,0.06,8.11,0.04,12.17
			c-0.06,9.13-5.23,16.13-12.03,16.27c-1.92,0.04-3.85,0.01-5.73-0.02c-2.23-0.03-4.53-0.07-6.77,0.02
			c-0.62,0.02-1.24,0.01-1.86-0.01c-2.48-0.06-4.13-0.1-5.93,2.46c-1.83,2.6-5.41,2.17-8.03,1.86c-0.43-0.05-0.84-0.1-1.23-0.14
			c-1.07-0.1-1.79,0.04-2.15,0.39c-0.35,0.34-0.92,1.39-0.73,4.54c0.21,3.46,0.08,6.61-0.4,9.37c-1.69,9.76-7.04,11.33-10.08,11.4
			c-5.14,0.14-9.44-4.95-10.67-12.6c-0.24-1.5-0.26-3.03-0.28-4.5c-0.02-1.32-0.03-2.57-0.2-3.74c-0.07-0.5-0.18-1-0.32-1.5
			l-2.92,5.17l-1.23-4.83c-0.71-2.78-5.88-7.01-9.29-6.85l-65.44,3.16c-31.12,1.5-62.24,3-93.36,4.51
			c-7.58,0.37-16.54,0.81-25.51,1.33c-8.08,0.47-16.16,0.97-24.24,1.46c-15.2,0.93-30.92,1.89-46.39,2.68
			c-12.53,0.63-25.28,1.13-37.6,1.6c-9.78,0.38-19.88,0.77-29.82,1.23c-7,0.32-14.11,0.75-21,1.16c-7.46,0.44-15.17,0.9-22.76,1.24
			c-0.85,0.04-1.43,0.24-1.73,0.61c-0.4,0.49-0.5,1.48-0.29,2.79c1.46,9.26,0.62,18.42-0.2,27.28c-0.63,6.79-1.28,13.81-0.84,20.69
			c0.04,0.57,0.06,1.15,0.07,1.73c0.03,1.02,0.06,1.97,0.19,2.88c0.49,3.43-0.21,6.47-1.93,8.35c-1.16,1.27-2.71,1.91-4.32,1.82
			c-1.69-0.1-3.27-1.47-4.51-3.19l-4.58,0.42l3.23-2.68c-0.41-0.83-0.72-1.65-0.93-2.38c-0.91-3.18-0.7-7.02-0.52-10.42l0.06-1.12
			c0.7-13.94-3.35-26.09-7.26-37.84c-0.27-0.82-0.5-1.74-0.7-2.87c-0.82-4.56-1.52-8.47-2.34-8.96c-0.64-0.38-3.56,0.59-5.7,1.29
			c-25.12,8.29-50.95,9.15-75.94,9.97c-2.11,0.07-4.21,0.14-6.32,0.21c-24.29,0.86-49,1.96-72.88,3.03
			c-7.48,0.33-14.96,0.67-22.44,1c-11.37,0.5-22.73,1.03-34.1,1.56c-10.14,0.47-20.28,0.95-30.42,1.4
			c-5.37,0.24-10.74,0.44-16.11,0.64c-6.87,0.26-13.97,0.52-20.94,0.87c-7.4,0.36-14.81,0.73-22.21,1.09
			c-35.89,1.75-73,3.56-109.48,5.8c-2.62,0.16-5.36,1.72-8.26,3.37c-2.1,1.19-4.27,2.43-6.54,3.2c-5.55,1.89-11.23,3.19-16.86,3.86
			c-6.6,0.79-13.16,0.68-18.14,0.48c-2.29-0.09-3.33-0.13-3.83,5.68c-0.48,5.63-2.92,11.99-5.93,15.45
			c-1.88,2.17-4.36,2.96-6.97,2.24c-4.42-1.22-8.32-6.67-9.49-13.25c-0.15-0.83-0.18-1.67-0.21-2.48c-0.04-0.9-0.08-1.92-0.3-2.4
			c-0.49-1.08-1.09-1.95-1.52-2.44c-0.47,0.6-1.03,1.64-1.1,2.35c-0.47,4.86-0.8,9.85-1.12,14.68c-0.3,4.62-0.62,9.39-1.06,14.07
			c-1.59,16.9-7.35,27.82-17.6,33.37c-8.04,4.36-16.19,9.15-24.07,13.78c-3.11,1.83-6.23,3.66-9.37,5.49l0.06,0.26l-1.45,0.7
			c-0.29,0.14-0.53,0.28-0.73,0.44l-0.31,0.2c-0.3,0.16-0.61,0.32-0.91,0.51c-0.21,0.13-0.43,0.31-0.65,0.49l-0.77,0.63l-0.97-0.24
			c-1.36-0.34-3.17,1.11-4.92,2.51c-1.37,1.09-2.79,2.23-4.33,2.82c-1.89,0.72-3.74,2.05-5.7,3.46c-1.3,0.93-2.65,1.9-4.06,2.71
			c-6.56,3.79-13.25,7.57-19.71,11.23c-3.83,2.17-7.67,4.34-11.5,6.52c-1.77,1.01-3.57,2.13-5.31,3.21
			c-3.65,2.27-7.42,4.61-11.35,6.24c-5.21,2.16-10.69,1.44-15.43-2.02c-7.79-5.68-12.16-17.37-11.13-29.77
			c0.12-1.48,0.03-3.03-0.12-4.75c-0.09,0.12-0.18,0.25-0.28,0.37c-8.82,11.78-17.94,23.95-31.37,26.01l-1.75,1.4
			c-9.04,7.23-17.72,6.81-40.38-1.97l-0.31-0.12l-0.26-0.22c-1.54-1.3-3.11-2.18-4.66-2.62l-0.97-0.27l-0.36-0.94
			c-0.28-0.73-0.49-1.08-0.61-1.25c-9.33-12.3-14.01-27.98-13.93-46.6c0.02-4.77,0.16-9.61,0.29-14.29
			c0.14-5.01,0.28-10.2,0.29-15.29c0-3.24-0.31-6.59-0.63-10.13c-0.08-0.82-0.15-1.66-0.23-2.52c-3.06,1.58-6.08,3.13-9.06,4.66
			c-8.49,4.37-16.52,8.5-24.62,12.75c-3.42,1.79-6.83,3.58-10.25,5.38c-14.64,7.67-29.78,15.61-44.57,23.73
			c-9.02,4.95-20.87,11.64-32.48,19.48c-8.64,5.84-13.44,16.84-14.26,32.71l-0.03,0.53c-0.59,11.36-0.89,12.48-9.46,14.99
			c-9.12,2.67-19.73,5.75-30.27,8.55c-5.54,1.47-11.02,2.58-17.54,3.79c-1.45,0.27-3.71,0.03-6.19-2.69l-2.59-2.83l3.8-0.5
			c18.8-2.5,36.69-7.33,54.62-14.76c-0.02-0.02-0.04-0.05-0.06-0.07l-1.06-1.39l1.24-1.23c0.28-0.28,0.55-0.64,0.79-1.08l0.21-0.38
			c0.59-1.25,0.79-2.75,0.59-4.36l-0.03-0.26l0.04-0.26c0.15-1.09,0.28-2.07,0.41-3.06c2.18-17.57,8.13-28.92,18.2-34.69
			c12.54-7.19,26-14.67,42.34-23.56c12.24-6.66,24.72-13.31,36.78-19.75c5.26-2.81,10.52-5.61,15.77-8.42
			c2.1-1.12,4.2-2.26,6.3-3.39c5.14-2.78,10.46-5.65,15.74-8.34c2.1-1.07,3.27-2.57,2.62-6.72c-3.14-20.1-6.26-40.21-9.38-60.31
			c-1.96-12.63-3.92-25.25-5.88-37.87c-0.03-0.22-0.1-0.46-0.19-0.76c-0.47,0.24-0.94,0.48-1.41,0.71c-2.5,1.26-4.87,2.45-7.21,3.8
			c-9.82,5.65-19.79,11.46-29.44,17.07l-10.05,5.85c-4.88,2.84-9.85,5.67-14.67,8.41c-11.24,6.4-22.85,13.02-34.07,20.14
			c-11.36,7.22-23.38,9.77-35,12.24c-1.09,0.23-2.18,0.46-3.27,0.7c-9.15,1.97-18.16,0.75-26.89-0.42
			c-7.11-0.96-13.83-1.87-20.67-1.21c-8.85,0.86-17.86,1.84-26.57,2.78c-3.57,0.39-7.14,0.78-10.71,1.16
			c-2.72,0.29-5.44,0.58-8.16,0.86c-6.77,0.71-13.77,1.44-20.64,2.25c-12.41,1.47-24.82,2.98-37.22,4.49
			c-7.09,0.86-14.19,1.73-21.28,2.58c-6.09,0.73-12.18,1.48-18.27,2.22c-16.12,1.97-32.78,4-49.18,5.85
			c-7.42,0.84-14.97,1.53-22.26,2.2c-7.03,0.64-14.3,1.31-21.44,2.11c-10.8,1.2-21.77,2.54-32.39,3.84
			c-8.34,1.02-16.96,2.07-25.45,3.05c-3.24,0.37-6.52,0.64-9.7,0.89c-5.61,0.45-11.42,0.92-17.01,2c-1.62,0.31-3.49,2.11-5.47,4.01
			c-0.69,0.66-1.4,1.34-2.14,2c9.74,16.59,12.1,36.05,14.39,54.89c0.43,3.52,0.87,7.17,1.35,10.72c1.96,14.43,3.55,29.21,5.09,43.49
			c0.44,4.09,0.88,8.18,1.33,12.27c0.22,2,0.17,3.99,0.11,6.29c-0.03,1.12-0.06,2.31-0.06,3.61v4.56l1.17-0.64l2.6,50.99l-1.64,0.2
			c0.28,8.44,0.31,16.93,0.2,25.39l1.38-1.72l0.29,5.22c0.65,11.89,0.59,24.03,0.54,35.78c-0.08,18.07-0.17,36.72,2.28,55.28
			c0.41-0.24,0.81-0.48,1.21-0.71c2.55-1.5,4.75-2.79,6.95-4.22c5.54-3.59,11.05-7.29,16.4-10.98l1.29,1.87
			c3.02-2.02,6.05-4.04,9.07-6.04l-1.43-2.39c1.3-0.78,2.58-1.52,3.83-2.26c3.19-1.86,6.2-3.63,9.13-5.61l1.18,1.75
			c1.85-1.26,4.01-2.75,6.45-4.41c104.2-71.29,127.46-85.96,130.33-86.05l0.13,4c0.15-0.01,0.24-0.03,0.25-0.03
			c-6.18,1.74-98.21,64.7-128.45,85.39c-7.56,5.17-12.55,8.59-13.45,9.18c-10.59,6.91-21.31,14.16-31.66,21.16l-3.87,2.62
			c-2.39,1.61-4.8,3.38-7.12,5.08c-1.16,0.85-2.33,1.71-3.5,2.55C63.69,381.49,62.43,381.83,61.41,381.83z M65.23,375.41
			c0,0.01-0.01,0.03-0.01,0.04c0,0,0.01-0.01,0.01-0.01L65.23,375.41z M47.66,308.16c-0.09,2.98-0.18,5.97-0.25,8.94
			c0,0.18,0.02,0.38,0.05,0.59c0.07-0.84,0.16-1.68,0.26-2.52C48.02,312.93,47.92,310.59,47.66,308.16z M61.05,242.82
			c0.03,1.02,0.05,2.05,0.08,3.06l0.08-0.01L61.05,242.82z M57.66,186.12l0.02,0.04c-0.02-0.39-0.05-0.77-0.09-1.14
			c-0.07-0.62-0.14-1.24-0.2-1.85C57.48,184.16,57.57,185.14,57.66,186.12z M680.14,51.44c-1.15,0-1.54,0.35-1.68,0.47
			c-1.05,0.93-1.31,3.76-1.41,5.82c-0.36,7-0.93,14.08-1.49,20.93c-0.34,4.15-0.68,8.44-0.98,12.66l-0.55,7.83
			c-0.97,13.8-1.98,28.07-2.76,42.12c-0.47,8.51,3.35,17.43,8.89,20.75c3.18,1.91,6.55,1.8,10-0.3c1.44-0.88,2.86-1.79,4.29-2.7
			c1.88-1.2,3.82-2.45,5.78-3.59c13.95-8.19,27.97-16.37,41.65-24.31c4.25-2.47,8.5-4.95,12.75-7.43
			c12.99-7.58,26.43-15.42,39.75-22.79c6.1-3.37,10.16-9.19,11.45-16.37c1.75-9.74,2.58-19.62,3.47-30.08
			c0.31-3.66,0.63-7.42,0.99-11.17c-0.53-0.08-0.89-0.12-1.14-0.11c-4.38,0.25-8.77,0.51-13.15,0.77
			c-7.99,0.48-16.25,0.97-24.37,1.37c-1.27,0.06-1.63,0.65-1.93,4.9l-0.02,0.28c-1.12,15.49-2.04,27.32-2.99,38.38
			c-0.4,4.72-1.99,7.64-4.48,8.22c-1.48,0.34-3.71-0.01-5.94-3.69c-2.32-3.83-3.87-10.02-3.77-15.05
			c0.15-7.95,0.85-15.79,1.59-24.08c0.24-2.71,0.49-5.46,0.71-8.26c-1.03-0.02-1.78-0.04-2.46,0.04c-3.58,0.38-7.23,0.81-10.76,1.23
			c-8.21,0.98-16.71,2-25.11,2.35c-3.03,0.13-4.22,0.79-4.66,7.3c-1.34,19.41-2.94,41.99-5.07,64.31
			c-0.41,4.25-2.85,8.17-5.32,11.81c-0.69,1.03-1.9,1.69-3.41,1.88c-1.69,0.21-3.33-0.22-4.38-1.15c-0.06-0.06-0.13-0.12-0.19-0.18
			l-0.06,0.01l0-0.07c-1.66-1.76-2.33-5.58-2.17-7.8c0.73-9.87,1.59-19.88,2.42-29.56c0.58-6.78,1.16-13.56,1.71-20.35
			c0.5-6.18,0.88-12.41,1.25-18.44c0.12-1.96,0.24-3.91,0.36-5.83c-1.34,0.01-2.64,0.03-3.92,0.05c-4.31,0.06-8.38,0.13-12.42-0.17
			C680.44,51.45,680.28,51.44,680.14,51.44z M603.25,158.54c0.63,0.2,1.24,0.38,1.84,0.55c-0.14-0.14-0.28-0.28-0.42-0.41
			L603.25,158.54z M608.19,156.55c0.05,0.05,0.09,0.09,0.14,0.14c0.63,0.63,1.68,1.68,2.11,1.77c2.57-0.14,5.21-0.78,8-1.45
			c1.59-0.38,3.23-0.78,4.87-1.08c1.17-0.21,2.23-0.04,3.57,0.18c0.2,0.03,0.41,0.07,0.64,0.1l2.39-1.26
			c0.7-0.37,1.42-0.72,2.13-1.07c1.48-0.72,2.87-1.39,4.16-2.29c11.35-7.88,20.8-18.85,28.06-32.62c1.01-1.92,1.74-4.99,2.06-8.65
			c1.38-16.07,2.63-32.43,3.83-48.26l0.5-6.54c0.05-0.68-0.01-1.46-0.11-2.54c-0.01-0.07-0.01-0.13-0.02-0.2l-30.08,3.33
			c-0.06,0.08-0.12,0.16-0.19,0.25c-0.72,0.96-1.54,2.04-2.81,2.43c-2.15,0.66-4.32,0.73-6.35,0.72c-2.5-0.04-6.16,0.74-8.48,7.58
			c-2.51,7.39-6.93,11.68-11.2,15.82c-2.17,2.1-4.22,4.09-6.04,6.47c-1.68,2.19-3.53,4.07-5.33,5.89c-1.76,1.78-3.42,3.46-4.92,5.41
			c-6.37,8.26-6.98,18.31-1.73,28.31c2.52,4.79,2.27,8.34-0.74,10.56c-0.56,0.42-1.56,0.85-3.07,0.53
			c-0.18-0.04-0.36-0.08-0.54-0.14c3.94,5.11,8.91,8.16,14.42,8.74c4.75,0.5,9.7,0.2,14.5-0.09c2.22-0.14,4.52-0.28,6.79-0.34
			c1.37-0.05,2.5,0.51,3.4,1.67l1.25,1.61l-1.63,1.22c-5.24,3.93-10.69,3.86-15.97,3.78C610.57,156.53,609.37,156.51,608.19,156.55z
			 M52.58,141.92c0.69,4.96,1.33,9.91,1.94,14.85c-0.55-4.95-1.12-9.92-1.73-14.88L52.58,141.92z M600.97,152.35
			c0.97,0.74,1.93,1.49,2.89,2.26l0.65-1.79l0.08-0.01c-0.51-0.04-1.02-0.08-1.53-0.14C602.35,152.59,601.65,152.49,600.97,152.35z
			 M586.64,146.01c1.72,1.92,3.66,3.58,5.83,4.92C590.49,149.4,588.52,147.78,586.64,146.01z M589.12,91.61
			c-1.09,1.84-2.09,3.73-2.99,5.74c-4.91,11-3.96,26.76,2.26,37.47c0.38,0.66,1.54,1.3,2.08,1.37c0.59-0.49,1.35-1.58-0.62-5.33
			c-5.94-11.29-5.17-23.18,2.1-32.61c1.65-2.14,3.48-3.99,5.24-5.78c1.79-1.81,3.47-3.52,5-5.51c2-2.62,4.25-4.8,6.43-6.92
			c3.95-3.83,7.69-7.46,9.93-13.48l-26.51,27.46L589.12,91.61z M666.9,122.51l0.26,4.21c0.08,1.29,0.2,2.51,0.31,3.66
			c0.1,1.02,0.19,2.03,0.26,3.01c0.29-4.82,0.6-9.65,0.93-14.47c-0.25,0.67-0.53,1.32-0.84,1.92
			C667.51,121.4,667.21,121.96,666.9,122.51z M704.47,50.28c-0.2,0-0.36,0.02-0.46,0.07c-0.47,0.47-0.71,3.7-0.86,5.63
			c-0.88,11.83-1.84,23.85-2.76,35.48c-0.62,7.77-1.23,15.53-1.84,23.3c-0.27,3.46-0.47,6.99-0.69,10.72
			c-0.05,0.85-0.1,1.72-0.15,2.6c1.94-1.28,2.88-3.53,3.19-7.26c0.35-4.21,0.71-8.42,1.07-12.63c0.86-10.2,1.76-20.74,2.58-31.11
			c0.52-6.51,0.96-13.14,1.39-19.54c0.16-2.34,0.31-4.68,0.47-7.01C705.7,50.4,704.96,50.28,704.47,50.28z M29.45,108.85
			c0.03,1.2-0.04,2.43-0.24,3.71c-0.12,0.73,0.61,2.17,1.26,3.44c0.02,0.04,0.05,0.09,0.07,0.13c-0.06-0.4-0.12-0.8-0.17-1.2
			l-0.48-3.31C29.76,110.71,29.61,109.78,29.45,108.85z M597.32,70.88c-5.88,2.24-9.61,7.73-11.79,12.34
			c-3.53,7.44-5.52,15-5.97,22.52c0.57-3.53,1.54-6.92,2.92-10.02c2.26-5.06,5.23-9.48,8.1-13.76c1.34-2,2.72-4.06,4-6.14
			C595.46,74.39,596.42,72.75,597.32,70.88z M574.98,82.11l0,6.45c0,3.4,0,6.8,0,10.19c0.41-2.98,0.89-5.94,1.37-8.85
			c0.39-2.39,0.79-4.85,1.14-7.26L574.98,82.11z M762.44,46.49c-0.88,0.6-1.53,1.3-1.57,1.64c-1.06,10.04-2.21,21.93-2.65,34
			c-0.06,1.74,0.74,3.71,1.62,5.8c0.18-2.07,0.36-4.14,0.54-6.2c0.96-11.02,1.96-22.42,2.77-33.65
			C763.13,47.78,762.79,47.08,762.44,46.49z M807.79,84.89l0.31,0.06L807.79,84.89z M579.93,79.06l2.03,0.42l-0.25,1.84
			c-0.04,0.29-0.08,0.58-0.12,0.87c0.11-0.23,0.21-0.46,0.32-0.69c4.29-9.04,10.87-14.54,18.54-15.49l3.23-0.4l-0.85,2.35
			c4.04-4.85,9.17-7.99,16.53-6.73l1.44,0.25c2.41-3.97,5.83-5.97,10.22-5.97c0.17,0,0.33,0,0.5,0c1.56,0,3.19-0.08,4.68-0.52
			c0.11-0.08,0.27-0.26,0.43-0.47c-0.23-0.17-0.46-0.33-0.68-0.46c-0.03,0.01-0.07,0.02-0.1,0.04c-0.3,0.1-0.61,0.2-0.9,0.26
			l-30.85,6.01l-0.17-1.47c-0.81,1.37-1.92,2.54-2.98,2.93c-5.53,2.01-11.8,5.22-16.36,13.7C583.65,77.28,581.83,78.49,579.93,79.06
			z M32.52,67.72c3.31,3.97,6,8.31,8.22,12.91c-1.02-3-2.21-5.9-3.59-8.7l-0.3-0.62c-0.78-1.59-2.08-4.24-2.92-4.35
			C33.72,66.94,33.25,67.1,32.52,67.72z M614.4,65.11c-6.6,1.06-10.65,7.62-14.56,15.08L614.4,65.11z M573.31,77.68l0.84,0.17
			c-0.31-0.42-0.59-0.9-0.84-1.41C573.31,76.85,573.31,77.27,573.31,77.68z M577.31,75.44c1.29,0.07,3.16-0.68,3.76-1.8
			c5.2-9.67,12.28-13.29,18.52-15.56c0.49-0.31,1.52-2.11,1.53-2.77c-0.93-9.87-2.07-19.6-3.28-29.91
			c-0.07-0.64-0.15-1.28-0.22-1.92c-4.41,9.08-9.02,13.82-14.27,14.79c-4.24,0.78-8.78-0.94-13.78-5.25
			c0.28,1.76,0.56,3.51,0.83,5.25c1.75,11.06,3.41,21.5,5.23,32.09C576,72.54,576.82,74.71,577.31,75.44z M34.34,62.99
			c0.03,0,0.07,0.01,0.1,0.01c0.06,0.01,0.11,0.02,0.17,0.02l-0.1-0.16C34.45,62.9,34.4,62.95,34.34,62.99z M828.53,59.44
			c0.44,0.28,0.87,0.48,1.28,0.6c0.98,0.27,1.8,0.05,2.58-0.68c-0.65,0.21-1.24,0.3-1.76,0.33
			C830.04,59.71,829.33,59.66,828.53,59.44z M1331.08,58.55c0.13,0.32,0.26,0.62,0.38,0.92c-0.01-0.2-0.01-0.4-0.02-0.59
			c-0.01-0.33-0.02-0.67-0.04-1C1331.31,58.11,1331.2,58.34,1331.08,58.55z M569.35,57.09c-0.17,0.76-0.43,1.46-0.77,2.11
			c0.23-0.12,0.47-0.24,0.7-0.36l0.33-0.17C569.52,58.15,569.44,57.62,569.35,57.09z M1328.59,22.36c-0.47,0-0.79,0.88-0.9,1.4
			l-0.05,0.19c-0.04,0.11-0.07,0.21-0.11,0.31l-0.05,0.25l-0.12,0.23c-0.73,1.46-1.12,3.37-1.11,5.37c0,0.84,0.13,1.71,0.27,2.62
			c0.13,0.88,0.26,1.78,0.3,2.74c0.01,0.41,0.02,0.82,0.02,1.22c0.01,1.01,0.02,1.89,0.22,2.75c0.14,0.59,0.35,1.09,0.64,1.49
			l0.38,0.54l-0.02,0.67c-0.18,6.95-0.29,11.02-0.11,13.66c0.81-2.29,1.63-7.35,1.62-13.98l0-0.56l0.29-0.48
			c0.09-0.16,0.18-0.32,0.26-0.51c0.9-2.1,0.75-5.41,0.63-8.33c-0.04-0.92-0.08-1.8-0.08-2.61c-0.01-0.06-0.01-0.13-0.01-0.19
			l0-0.06l0-0.06c0.05-1.52-0.18-2.95-0.49-4.68c-0.14-0.79-0.6-1.42-0.98-1.64l-0.32-0.22
			C1328.73,22.37,1328.66,22.36,1328.59,22.36z M602.04,8.16l5.54,47.45l26.61-5.19c0.11-0.02,0.23-0.07,0.35-0.11
			c0.62-0.22,1.66-0.58,2.77-0.06c0.95,0.44,1.74,1.07,2.51,1.68c0.01,0.01,0.02,0.02,0.03,0.03l-0.14-1.9l1.81-0.29
			c1.74-0.28,3.49-0.59,5.23-0.9c3.9-0.69,7.93-1.4,11.94-1.82c5.25-0.55,10.58-0.91,15.73-1.25c2.79-0.19,5.58-0.37,8.37-0.59
			c8.35-0.65,16.7-1.32,25.05-1.99c17.09-1.38,34.76-2.8,52.15-3.99c20.15-1.38,40.64-2.54,60.45-3.67c0.58-0.03,1.17-0.07,1.75-0.1
			l0.58-3.04l1.17,2.94c5.95-0.34,11.89-0.68,17.83-1.02c2.93-0.17,5.89-0.28,8.77-0.38c5.93-0.21,12.07-0.43,18.01-1.23
			c2.13-0.29,4.34-1.49,6.67-2.76c1.66-0.91,3.38-1.84,5.18-2.5c1.19-0.43,2.38-0.89,3.57-1.35c4.6-1.78,9.37-3.61,14.25-3.93
			c10.57-0.69,21.31-0.95,31.7-1.19c6.49-0.15,13.2-0.31,19.79-0.58l7.6-0.3c28.08-1.12,57.12-2.29,85.66-3.81
			c19.19-1.03,38.7-2.25,57.56-3.43c16.61-1.04,33.78-2.11,50.68-3.05c9.13-0.51,18.41-0.78,27.38-1.05
			c7.93-0.24,16.13-0.48,24.18-0.88c4.17-0.21,8.34-0.41,12.51-0.61c20.94-1.01,42.6-2.06,63.84-3.98
			c7.94-0.72,16.04-3.07,23.87-5.35c2.54-0.74,5.16-1.5,7.75-2.2c0.45-0.45,1.2-1.98,1.21-2.78c0.16-25.23,0.14-48.71-0.05-71.76
			c-0.04-0.45-1.07-1.79-2.25-2.57c-0.18-0.08-0.86,0-1.27,0.05c-0.43,0.05-0.91,0.11-1.41,0.11c0,0-0.01,0-0.02,0
			c-12.55-0.03-25.11-0.04-37.66-0.06c-27.64-0.04-56.22-0.08-84.33-0.21c-16.59-0.08-33.45-0.23-49.76-0.39
			c-20.18-0.19-41.04-0.38-61.56-0.43c-52.8-0.12-106.48-0.14-158.4-0.16c-21.75-0.01-43.5-0.02-65.25-0.03l-4.29,0l-4.07,0
			l-0.22-6.06l1.74-0.29c0.56-0.09,1.12-0.19,1.68-0.3c1.32-0.24,2.69-0.49,4.09-0.61c1.34-0.12,2.66-0.11,3.95-0.11
			c0.65,0,1.31,0,1.96-0.01c3.24-0.07,5.38-0.12,5.89-0.86c0.75-1.11,0.75-4.78,0.75-9.88c0-3.52-0.09-7.12-0.17-10.59
			c-0.09-3.76-0.18-7.64-0.17-11.48c0.01-2.45-0.42-3.23-0.67-3.47c-0.25-0.24-0.8-0.35-1.64-0.32c-8.1,0.3-15.55,0.32-22.79,0.05
			c-1.15-0.04-1.9,0.11-2.22,0.44c-0.31,0.32-0.8,1.33-0.58,4.47c0.04,0.52,0.07,1.03,0.1,1.53c0.11,1.92,0.22,3.73,0.58,5.35
			l0.06,0.27l-0.02,0.28c-0.1,1.6-0.11,3.26-0.13,4.87c-0.01,0.92-0.02,1.84-0.04,2.74c-0.09,3.47-0.02,6.07,0.22,8.42l0.02,0.2
			l-0.02,0.2c-0.21,2.11-0.18,3.74,0.08,5.27c0.18,1.04,0.49,1.89,0.94,2.51l0.48,0.66l0.6,0.18c0.18,0.05,0.32,0.08,0.42,0.09
			l0.27,0.01l0.25,0.08c0.26,0.08,0.57,0.07,0.93-0.04l3.94-1.14l-1.54,3.81c-0.74,1.82-1.48,3.61-2.21,5.39
			c-1.75,4.22-3.4,8.2-4.87,12.38c-4.96,14.13-13.33,17.25-19.48,17.38c-14.8,0.31-29.84,0.23-44.38,0.16
			c-7.07-0.04-14.15-0.07-21.22-0.06l-5.28,0c-8.65-0.01-17.59-0.01-26.35,0.36c-8.83,0.38-15.85-4.61-21.47-15.22
			c-0.47-0.9-2.02-1.52-3.17-1.55c-7.44-0.16-15.02-0.15-22.35-0.16c-3.46,0-6.93,0-10.39-0.01c-1.24-0.01-2.46-0.16-3.35-0.27
			c-0.31-0.04-0.59-0.08-0.82-0.1l-2.13-0.2l0.34-2.11c0.22-1.35,0.49-2.65,0.74-3.91c0.56-2.74,1.09-5.32,0.96-7.68
			c-0.03-0.58-0.92-1.54-1.74-2.37c-0.01,0.15-0.02,0.29-0.03,0.44c-0.18,2.23-0.34,4.33-0.25,6.4c0.17,3.55-0.38,5.78-1.78,7.21
			c-1.13,1.16-2.74,1.72-4.9,1.67c-6.6-0.12-13.33-0.09-19.84-0.06c-6.13,0.03-12.47,0.05-18.71-0.04c-4.23-0.08-7.3,1.03-9.34,3.34
			c-3.02,3.44-3.88,9.74-2.56,18.73l1.68,11.45c0.69,4.73,1.39,9.46,2.08,14.19l1.46-1.36c5.33-4.95,10.2-5.61,14.48-1.97
			c3.94,3.35,5.69,8.67,5.19,15.81c-0.51,7.3-3.61,11.98-9.22,13.89c-2.51,0.86-4.98,1.49-7.6,2.16
			C603.23,7.86,602.64,8.01,602.04,8.16z M636.17,55.01L636.17,55.01C636.17,55.01,636.17,55.01,636.17,55.01z M834.48,54.05
			l0.83,0.67L834.48,54.05z M674.33,49.82l0.04,0.62c0.01,0.12,0.01,0.24,0.02,0.35c0.18-0.36,0.39-0.7,0.63-1.02
			c-0.11,0.01-0.22,0.01-0.32,0.02C674.57,49.81,674.45,49.82,674.33,49.82z M829.83,49.02c0.11,0.04,0.24,0.08,0.38,0.11
			c0.6-1.82,1.05-3.78,1.52-5.83c0.13-0.54,0.25-1.09,0.38-1.63l-0.13-0.16c-0.21,0.07-0.42,0.13-0.62,0.2
			c-1.01,0.31-2.15,0.67-2.37,1.15l0,0C828.68,43.57,828.87,45.94,829.83,49.02z M709.49,47.11l1.15,0.26l-0.03,0.43
			c0.32-0.32,0.67-0.61,1.07-0.86C710.95,46.99,710.22,47.05,709.49,47.11z M763.58,45.86c0,0-0.01,0-0.01,0
			C763.58,45.86,763.58,45.86,763.58,45.86L763.58,45.86z M764.74,42.93c0.56,0.58,1.17,1.47,1.63,2.42c0.31-1,0.78-1.92,1.51-2.63
			C766.83,42.79,765.78,42.86,764.74,42.93z M759.01,43.31l-0.07,0.86c0.38-0.35,0.78-0.66,1.18-0.93
			C759.76,43.26,759.39,43.29,759.01,43.31z M817.66,42.89L817.66,42.89L817.66,42.89z M819.09,39.65c0.77,0.53,1.44,1.3,1.98,2.1
			c0.1-0.72,0.22-1.46,0.36-2.23c-0.25,0.01-0.5,0.03-0.75,0.04C820.15,39.59,819.62,39.62,819.09,39.65z M834.91,38.75l1.31,1.71
			l0.91-1.83C836.39,38.67,835.65,38.71,834.91,38.75z M825.5,39.29c0.13,0.35,0.24,0.71,0.34,1.07c0.35-0.47,0.77-0.85,1.23-1.16
			C826.56,39.23,826.03,39.26,825.5,39.29z M814.64,39.91l-0.04,0.37c0.14-0.14,0.28-0.27,0.42-0.39
			C814.89,39.89,814.76,39.9,814.64,39.91z M839.1,38.51l0.09,1.02c0.22-0.39,0.47-0.75,0.75-1.07
			C839.67,38.48,839.38,38.49,839.1,38.51z M572.03,29.88c4.06,3.56,7.55,5.02,10.59,4.46c2.76-0.51,5.45-2.73,8.11-6.74l-0.46-2.61
			c-0.05-0.28-0.1-0.55-0.15-0.81l-1.18,0.95c-0.69,0.55-1.37,1.18-2.1,1.85c-1.79,1.65-3.64,3.35-5.85,4.13
			c-1.9,0.67-3.86,0.45-5.37-0.6c-1.26-0.88-2.78-2.74-2.82-6.57v0c0-0.2,0-0.4,0-0.6c-0.21,1.09-0.38,2.32-0.51,3.71L572.03,29.88z
			 M882.08,31.13c-0.1,0.04-0.2,0.07-0.3,0.11c-0.84,0.31-1.68,0.7-2.54,1.13C880.18,32.05,881.12,31.62,882.08,31.13z
			 M581.21,18.66c-0.24,0.1-0.47,0.19-0.69,0.28c-2.74,1.09-3.76,1.5-3.72,4.95c0.02,1.64,0.42,2.86,1.11,3.34
			c0.63,0.44,1.43,0.22,1.74,0.11c1.44-0.51,2.98-1.93,4.48-3.3c0.26-0.24,0.52-0.48,0.79-0.72L581.21,18.66z M1320.79,19.79
			c0.66,2.07,1.3,4.16,1.89,6.28c0.24-1.05,0.58-2.05,1.01-2.94c0.04-0.12,0.08-0.23,0.12-0.35l0,0c0.18-0.79,0.47-1.49,0.83-2.09
			C1323.15,20.76,1321.87,20.46,1320.79,19.79z M564.76,22.32l1.07,1.18c-0.53-1.05-0.99-2.12-1.39-3.2
			C564.55,20.97,564.66,21.64,564.76,22.32z M583.5,15.11l6.38,8C588.57,17.86,586.17,15.8,583.5,15.11z M355.5,18.1
			c-2.24,0.04-4.47,0.12-6.69,0.26c-9.41,0.59-18.98,2.03-28.28,3.49c0.32-0.03,0.63-0.07,0.95-0.1c2.72-0.28,5.43-0.57,8.15-0.86
			c3.57-0.38,7.13-0.77,10.7-1.16C345.31,19.19,350.4,18.63,355.5,18.1z M1331.31,19.32c0.75,0.46,1.39,1.14,1.89,1.95
			c0.03-2.29-0.02-4.57-0.19-6.86c-0.53,1.81-1.43,3.27-2.68,4.31C1330.67,18.88,1331,19.07,1331.31,19.32z M580.18-16.79
			c-0.14,0-0.29,0-0.43,0.01c-4.13,0.27-7.43,4.45-9.47,7.9c-3.81,6.45-6.21,19.51-1.13,30.07c1.11-4.57,3.72-9.88,10.25-10.33
			c6.57-0.44,10.98,2.23,13.36,8.14c3.43-9.43,2.62-22.64-2.37-29.01C587.93-13.14,584.21-16.79,580.18-16.79z M579.99,14.83
			c-0.11,0.01-0.21,0.01-0.31,0.02c-1.59,0.11-3.33,0.62-4.76,2.7c1.18-1.16,2.7-1.77,4.12-2.34
			C579.35,15.1,579.67,14.97,579.99,14.83z M1319.03-129.91c-0.07,1.02-0.15,2.04-0.22,3.05c-0.25,3.31-0.5,6.73-0.51,10.06
			c-0.03,11.2-0.01,22.6,0.01,33.62c0.04,22.23,0.08,45.22-0.26,67.83c-0.09,6.3,0.85,12.3,1.76,18.11
			c0.48,3.04,0.97,6.19,1.32,9.36c0.24,2.19,0.82,3.65,1.67,4.23c0.71,0.48,1.87,0.49,3.53,0.03c3.23-0.9,3.36-5.13,3.14-7.58
			c-0.12-1.4-0.41-2.79-0.71-4.27c-0.14-0.71-0.29-1.42-0.42-2.14l-0.49-2.73l2.74,0.39c0.5,0.07,0.78,0.01,0.87-0.06
			c0.55-0.48,0.55-2.82,0.56-4.07l0-0.72c0.09-9.54,0.08-19.24,0.07-28.62c0-3.56-0.01-7.12,0-10.69l0.01-21.69
			c0.01-18.29,0.03-36.58,0.02-54.87c0-8.49-0.5-8.57-5.29-9.37c-2.01-0.33-4.12-0.16-6.36,0.02
			C1320.01-129.99,1319.52-129.95,1319.03-129.91z M1722.93-29.01l0.37,2.11c0.12,0.7,0.28,1.4,0.43,2.1
			c0.36,1.65,0.73,3.37,0.77,5.16c0.06,2.87,0.02,5.78-0.01,8.59c-0.05,3.51-0.1,7.14,0.06,10.66c0.17,3.95,1.95,7.29,3.53,8.73
			c0.64,0.58,1.18,0.79,1.42,0.76c1.66-0.09,4.08-4.14,4.12-10.29c0.01-2.07,0-4.14-0.01-6.2c-0.02-4.09-0.04-8.32,0.1-12.48
			c0.06-1.75,0.59-3.35,1.09-4.9c0.2-0.62,0.41-1.24,0.57-1.87l0.57-2.15l4.73,1.8l-0.05,1.43c-0.04,1.14-0.2,2.33-0.36,3.47
			c-0.27,1.96-0.6,4.41,0.07,5.12c0.31,0.33,1.15,0.46,2.29,0.37l0.99-0.08c1.79-0.14,3.64-0.29,3.83-0.66
			c0.45-0.85,0.26-3.84,0-7.98l-0.01-0.15c-0.17-2.65-0.17-5.28-0.16-7.72c0.04-6.87,0.08-13.75,0.13-20.62
			c0.13-21.94,0.26-44.63,0.58-66.95c0.04-2.8-0.27-4.54-0.92-5.17c-0.25-0.25-0.79-0.57-2.55-0.51
			c-9.81,0.34-19.58,0.35-29.05,0.02c-0.98-0.03-1.64,0.1-1.95,0.4c-0.83,0.81-0.8,3.8-0.79,4.78c0.12,12.3,0.07,24.8,0.02,36.89
			c-0.02,5.19-0.04,10.38-0.05,15.57c-0.01,6.77-0.01,13.55,0,18.78l0,8.25l-2.84-1.31c-0.25-0.11-0.57-0.23-0.94-0.35
			c-0.39-0.14-0.81-0.29-1.26-0.47l-1.24-0.5l-0.01-1.34c-0.01-1.32-0.02-2.64-0.02-3.97c-0.02-4.15-0.04-8.45-0.26-12.65
			l-0.02-0.35l0.1-0.33c0.05-0.18,0.09-0.34,0.1-0.49c0.88-8.13,1.37-14.04-0.29-15.89c-1.16-1.29-4.09-1.53-9.44-1.53
			c-0.27,0-0.55,0.01-0.82,0.02c-0.72,0.03-1.53,0.06-2.38-0.07c-0.56-0.09-0.98-0.06-1.14,0.08c-0.17,0.14-0.7,0.85-0.67,3.92
			c0.09,8.46,0.07,17.05,0.05,25.36c-0.01,4.2-0.02,8.41-0.02,12.61c0.01,9.9,0.01,15.35,1.7,17c1.29,1.26,4.62,1.19,10.15,1.09
			l0.25,0c1.49-0.03,1.83-0.4,1.95-0.52c0.34-0.36,0.71-1.31,0.59-3.79c-0.14-2.67-0.1-5.36-0.07-7.73l0-0.36l0.13-0.34
			c0.32-0.83,0.45-1.82,0.39-2.93l-0.13-2.18l2.17-0.01l3.43,0.09v1.95c0,1.53-0.02,3.07-0.03,4.6c-0.04,3.75-0.08,7.62,0.13,11.37
			c0.08,1.45,0.72,3.35,1.12,3.92c2.65,1.02,3.52,0.69,3.78,0.5c0.42-0.33,1.33-1.76,0.61-8.08c-0.09-0.8,0.15-1.49,0.33-2
			c0.04-0.12,0.09-0.24,0.12-0.36l0.3-1.15L1722.93-29.01z M562.04,4.77c0.1,0.62,0.19,1.24,0.29,1.86
			c0.03-1.02,0.09-2.03,0.19-3.02L562.04,4.77z M595.11-10.09c2.26,4.04,3.49,9.41,3.68,14.99l0.54-0.15
			c0.56-0.15,1.11-0.3,1.66-0.44c-1.8-1.22-2.4-3.75-2.74-6.11c-0.29-2.04-0.59-4.07-0.88-6.11L595.11-10.09z M1332.71,3.81
			c0.07,0.34,0.14,0.68,0.21,1.03c0.19-0.4,0.42-0.77,0.7-1.11c0.6-0.73,1.65-1.59,3.42-1.93c-0.26-0.16-0.5-0.35-0.72-0.57
			c-0.26-0.25-0.48-0.52-0.68-0.81c-0.28,1-0.74,1.9-1.54,2.59C1333.68,3.37,1333.22,3.63,1332.71,3.81z M599.76-19.17
			c0.82,5.6,1.63,11.2,2.44,16.8c0.42,2.92,0.99,3.35,1.03,3.37c0-0.01,0.3,0.02,1.04-0.36c1.26-0.66,2.52-1.04,3.74-1.41
			c1.28-0.39,2.48-0.75,3.51-1.4c2.68-1.71,3.58-5.2,2.73-10.68c-0.6-3.86-1.65-5.34-2.43-5.91c-0.37-0.27-1.02-0.6-2.3-0.38
			l-0.47,0.08c-2.24,0.38-4.56,0.78-7.07,0.31L599.76-19.17z M1313.13-1.04c0.25,0.09,0.5,0.21,0.74,0.35
			c0.66,0.39,1.18,0.92,1.61,1.63c-0.21-1.39-0.42-2.79-0.61-4.21C1314.41-2.38,1313.82-1.58,1313.13-1.04z M1343.27-82.57
			c-2.27,0-4.13,0.05-4.56,0.5c-0.72,0.75-0.55,4.49-0.32,9.66c0.07,1.63,0.06,3.19,0.05,4.7c0,0.56-0.01,1.12-0.01,1.68
			c0,5.18,0,10.37,0.01,15.55c0.01,14.59,0.02,29.68-0.07,44.52c-0.01,2.39,0.22,3.83,0.71,4.3c0.29,0.28,0.95,0.31,1.45,0.28
			c6.54-0.34,13.19-0.59,19.61-0.84c7.62-0.29,15.49-0.58,23.23-1.04c12.69-0.75,25.59-1.6,38.07-2.43
			c13.33-0.88,27.11-1.8,40.67-2.58c9.44-0.55,19.03-0.87,28.31-1.18c5.35-0.18,10.69-0.36,16.03-0.58
			c15.17-0.63,30.34-1.26,45.5-1.9c23.28-0.98,47.36-1.99,71.04-2.94c7.91-0.32,15.95-0.57,23.72-0.82
			c9.12-0.29,18.54-0.59,27.81-0.99c1.12-0.05,2.67-0.72,3.09-1.61c1.19-2.5,2.01-5.37,2.88-8.41c0.35-1.24,0.71-2.48,1.09-3.69
			c3.45-11.01,3.56-22.95,3.66-34.49c0.03-3.2,0.06-6.5,0.16-9.76l2,0.06l-2-0.06c0.1-3.32-0.22-5.35-0.95-6.03
			c-0.43-0.39-1.32-0.52-2.66-0.38c-3.71,0.4-7.43,0.3-11.03,0.21c-1.55-0.04-3.1-0.08-4.65-0.08l-5.2,0.03c-1.4,0-2.81,0.01-4.21,0
			c-17.32-0.14-34.65-0.3-51.97-0.46c-38.24-0.35-77.79-0.7-116.68-0.92c-30.37-0.17-61.25-0.2-91.12-0.22
			c-17.52-0.02-35.03-0.03-52.55-0.08l-0.22,0C1343.87-82.57,1343.57-82.57,1343.27-82.57z M1467.5-4.55
			c-1.72,0.09-3.44,0.18-5.16,0.28c-1.37,0.08-2.75,0.16-4.13,0.24C1461.3-4.2,1464.4-4.37,1467.5-4.55z M557.33-46.5
			c1.85,12.16,3.74,24.32,5.71,37.02l0.04,0.25c0.57-1.37,1.21-2.56,2.1-3.47c4.76-4.94,4.84-11.49,4.46-19.56
			c-0.31-6.54-0.24-13.24-0.17-19.72c0.03-2.34,0.05-4.69,0.06-7.04c-3.8,3.43-7.79,7.19-12.18,11.47
			C557.31-47.29,557.28-46.82,557.33-46.5L557.33-46.5z M1713.96-12.43c0.68,0.62,1.29,1.28,1.83,1.96l0.93-1.65
			C1715.8-12.07,1714.86-12.2,1713.96-12.43z M1719.88-13.38l0.5,1.65c0.04,0.13,0.08,0.25,0.12,0.38c0.01-0.91,0.02-1.82,0.03-2.74
			C1720.34-13.82,1720.12-13.59,1719.88-13.38z M1737.6-14.06c-0.01,0.77-0.01,1.53-0.01,2.3c0.09-0.1,0.17-0.19,0.27-0.28
			c0.42-0.4,0.88-0.73,1.41-0.97C1738.62-13.25,1738.07-13.6,1737.6-14.06z M1748.76-13.54c-0.35,0.13-0.73,0.25-1.16,0.35
			C1748.14-13.22,1748.57-13.32,1748.76-13.54z M1704.68-16.71c1.54,0,3.25,0.49,4.92,1.3c-0.51-1.03-0.85-2.22-1.06-3.23
			c-1.08,1.14-2.64,1.71-4.76,1.75l-0.25,0c-6.8,0.13-10.55,0.2-13.03-2.23c-0.56-0.55-1.01-1.18-1.38-1.93
			c-0.27,2.45-0.91,4.05-2.05,5.12c-0.02,0.02-0.04,0.04-0.06,0.06l17.33-0.84C1704.45-16.71,1704.57-16.71,1704.68-16.71z
			 M585.11-19.69c1.88,0.85,3.74,2.18,5.58,4c-0.69-1.31-1.21-2.67-1.59-4.05h-1.16C586.96-19.74,586.02-19.72,585.11-19.69z
			 M1751.68-21.53c0.09,2.35,0.04,4.06-0.35,5.32c2.32-1.63,4.71-1.57,6.75-1.52c0.53,0.01,1.07,0.03,1.6,0.01
			c2.34-0.09,4.71-0.05,6.99-0.02c1.83,0.03,3.73,0.06,5.58,0.02c1.32-0.03,2.55-0.51,3.64-1.35c-0.7,0.21-1.41,0.33-2.12,0.37
			c-7.15,0.41-13.03,0.41-18.53,0.02C1753.84-18.78,1752.58-20.04,1751.68-21.53z M573.53-22.43c-0.17,1.53-0.44,3.02-0.86,4.45
			c1.16-0.92,2.35-1.61,3.58-2.08C575.19-20.31,574.26-21.26,573.53-22.43z M1755.83-22.65c5.24,0.36,10.88,0.35,17.73-0.04
			c2.76-0.16,4.31-2.22,4.34-5.8l2,0.02l-2-0.02c0.13-12.87,0.11-25.54,0.09-38.96c-0.01-4.44-0.02-8.92-0.02-13.44
			c-1.46,0-2.89-0.01-4.31-0.01c-6.38-0.02-12.41-0.04-18.38,0.15c-0.4,0.23-1.06,1.01-1.14,1.38c-0.28,3.62-0.6,7.78-0.23,11.55
			l0.02,0.19l-0.02,0.19c-0.42,4.48-0.36,9.27,0.18,13.47l0.02,0.15l-0.02,0.83c-0.02,0.79-0.03,1.57-0.04,2.36
			c-0.02,2.27,0.05,4.66,0.24,7.77l0.02,0.34l-0.09,0.33c-0.12,0.44-0.2,0.8-0.25,1.13c-0.64,4.87-0.26,10.22,0.25,15.29
			C1754.34-24.74,1755.28-23.12,1755.83-22.65z M577.38-23.91c2.12,0.4,4.36,0.33,6.95,0.24c0.53-0.02,1.06-0.03,1.61-0.05v-35.88
			l-5.27,15.37l-4.9-14.89c-0.02,10.91-0.03,21.27,0.14,31.76C575.92-26.32,576.84-24.44,577.38-23.91z M577.48-23.83L577.48-23.83
			L577.48-23.83z M552.37-52.09l0.7,2.3c0.15,0.48,0.28,0.89,0.4,1.24c0.14-0.6,0.39-1.19,0.82-1.61c0.94-0.92,1.85-1.81,2.76-2.68
			l-2.76-0.43V-96.5c-1.36-0.1-2.75-0.2-4.19-0.31c-0.38-0.03-0.77-0.06-1.16-0.09v0.59l4.41-0.19v44.47l-4.41-0.45v2.16
			c0.44-0.22,0.87-0.45,1.31-0.67L552.37-52.09z M546.53-51.73c0.12,0.64,0.24,1.29,0.35,1.94l0.08,0.48
			c0.27-0.14,0.54-0.27,0.81-0.41L546.53-51.73z M589.94-83.24v32.7l1.33-0.37c-0.5-7.7,0.84-13.27,4.05-16.94
			c0.78-0.89,1.67-1.66,2.67-2.3c-1.79,0.17-3.6,0.34-5.44,0.49l-2.16,0.17v-19.74C590.33-87.17,590.17-85.18,589.94-83.24z
			 M1821.15-51.58c-0.15,0.08-0.29,0.14-0.44,0.2c0.08,0,0.16,0,0.24-0.01C1821.01-51.43,1821.08-51.5,1821.15-51.58z M1789.02-52
			c0.21,0.01,0.42,0.02,0.62,0.03c-0.43-0.26-0.84-0.59-1.22-0.98C1788.65-52.52,1788.86-52.19,1789.02-52z M709.81-55.72
			c2.04,0.87,4.23,1.24,6.58,1.14c8.85-0.37,17.83-0.37,26.52-0.36l5.27,0c7.09-0.01,14.16,0.03,21.24,0.06
			c14.52,0.07,29.53,0.15,44.28-0.16c1.39-0.03,2.68-0.25,3.87-0.63c-1.82,0.38-4,0.49-5.46-0.61c-0.54-0.41-1.04-1.08-1.43-1.84
			c-0.21,0.49-0.5,0.91-0.87,1.29c-1.43,1.43-3.48,1.41-6.88,1.38c-0.6-0.01-1.27-0.02-1.99-0.01c-7.63,0-15.27,0.01-22.9,0.02
			c-21.56,0.02-43.85,0.05-65.78-0.03C711.44-55.47,710.62-55.56,709.81-55.72z M1791.67-55.41c9.31,0.44,18.63,0.51,27.73,0.23
			c0.55-0.44,1.57-2.01,1.62-2.83c0.38-6.34,0.41-13.21,0.1-20.42c-0.03-0.67-0.79-2.05-1.31-2.55c-8.06-0.24-16.1-0.23-24.6-0.2
			c-1.79,0-3.59,0.01-5.41,0.01c0,1.81-0.01,3.56-0.03,5.28c-0.04,6.26-0.07,12.17,0.19,17.95
			C1790-57.34,1791.05-55.79,1791.67-55.41z M559.43-58.96v3.84c0.75-0.71,1.49-1.41,2.22-2.1L559.43-58.96z M800.95-59.46l0,2
			L800.95-59.46c0.72,0,1.41,0.01,2.03,0.01c1.71,0.01,3.64,0.03,4.03-0.23c0.33-0.47,0.31-3.06,0.28-5.8
			c-0.01-0.93-0.02-1.96-0.02-3.1h-63.79l0.33-6.9h60.37c0.42-2.94,0.82-6.33,0.34-6.89c-0.3-0.35-2.83-0.34-3.78-0.34
			c-1.88,0-3.75,0.02-5.63,0.03c-4.01,0.02-8.15,0.05-12.24,0.01c-1.18-0.01-2.28-0.26-3.33-0.49c-0.42-0.09-0.84-0.19-1.26-0.26
			l-1.73-0.31l0.14-2.94c-0.95,0-1.9,0-2.85,0l0.11,1.23c-8.73,1.61-17.47,1.58-25.18,1.55c-7-0.02-14.01-0.06-21.01-0.09
			c-8.42-0.04-16.83-0.08-25.25-0.1c-1.92-0.02-3.2,0.44-3.94,1.35c-1.13,1.39-1.28,4.23-0.43,8.21c1.8,8.43,8.01,15.05,14.12,15.08
			c21.92,0.08,44.2,0.06,65.76,0.03C785.68-59.45,793.31-59.46,800.95-59.46z M562.24-61.66v3.88c1.75-1.64,3.45-3.19,5.12-4.69
			c0.04-0.04,0.08-0.07,0.12-0.1c-0.5-0.1-1.03-0.26-1.58-0.47V-62L562.24-61.66z M813.87-83.63l0,4.26
			c-0.01,6.35-0.02,12.34,0.07,18.33c0.01,0.5,0.41,1.37,0.64,1.59c0.47,0.22,2.89,0.02,5.61-1.35c2.35-1.18,3.53-2.53,3.67-3.35
			l1.97,0.33l-1.97-0.33c0.79-4.74,0.68-9.98,0.57-15.04c-0.03-1.45-0.06-2.89-0.07-4.33c-0.08-0.03-0.14-0.05-0.19-0.06
			c-2.83-0.08-5.76-0.07-8.86-0.06C814.82-83.63,814.34-83.63,813.87-83.63z M1825.27-63.71c-0.01,0.36-0.02,0.72-0.03,1.08
			l0.48-0.04c0.35-0.03,0.69-0.06,1.03-0.09C1826.18-62.99,1825.69-63.31,1825.27-63.71z M570.85-62.86
			c0.3,0.08,0.61,0.16,0.92,0.21c0-0.27,0-0.55,0-0.82c-0.1,0.09-0.22,0.18-0.33,0.26C571.25-63.07,571.05-62.96,570.85-62.86z
			 M1833.18-63.87c-0.32,0.32-0.68,0.59-1.09,0.81c0.88-0.01,1.76-0.02,2.64-0.03c-0.1-0.16-0.19-0.33-0.27-0.52
			C1834.01-63.68,1833.58-63.77,1833.18-63.87z M1851.21-63.34c-0.02,0.04-0.04,0.07-0.07,0.11c0.69-0.01,1.39-0.02,2.08-0.03
			c-0.4-0.02-0.8-0.03-1.2-0.05L1851.21-63.34z M1862.59-63.45C1862.58-63.45,1862.58-63.44,1862.59-63.45c0.04,0,0.08,0,0.13,0
			C1862.67-63.45,1862.63-63.45,1862.59-63.45z M1890.75-64.57c-0.18,0.15-0.38,0.29-0.58,0.41c0.17-0.01,0.33-0.02,0.48-0.03
			C1890.67-64.32,1890.71-64.45,1890.75-64.57z M577.12-104.39c-0.6,0.29-1.87,1.92-1.94,2.83v0c-1.07,13.44,1.89,25.54,5.72,36.69
			c2.98-7.7,5.48-16.08,5.5-25.87l0-0.97c0.02-7.2,0.03-11.95-1.13-12.96C584.38-105.43,581.18-104.98,577.12-104.39z M1842.35-65.3
			c0.92,0,1.85,0.02,2.67,0.12c0.07,0.01,0.15,0.01,0.22,0.01c0.22,0,0.51,0.01,0.85,0.06c1.62,0.28,1.71-0.14,1.84-0.72l0.37-1.63
			l3.89,0.16c2.72,0.11,5.53,0.23,8.28,0.27c0.25,0.01,0.53-0.06,0.8-0.19l0.42-0.21h0.47c3.62,0,7.19,0,10.75,0
			c1.45,0,2.9-0.02,4.34-0.04c3.18-0.04,6.46-0.08,9.72,0.06c0.44,0.02,1-0.01,1.25-0.26c0.2-0.19,0.64-0.91,0.54-3.4
			c-0.11-2.68-0.08-5.29-0.06-8.31c0.01-0.77,0.01-1.56,0.02-2.38h-1.37l0.24-2.21c0.13-1.21,0.05-2.41-0.22-3.48l-0.18-0.72
			l0.33-0.67c1.11-2.21,1.13-5.05,0.06-7.98l-0.16-0.44l0.05-0.47c0.04-0.39,0.09-0.78,0.14-1.15c-0.12,0-0.23-0.01-0.35-0.02
			l-0.66-0.03l-0.51-0.42c-0.23-0.19-0.95-0.77-2.11-0.06l-0.53,0.32l-2.67-0.14c-0.97-0.05-1.64-0.09-1.79-0.09
			c-2.39-0.04-4.79-0.11-7.18-0.18c-5.17-0.15-10.51-0.3-15.73-0.17l-0.18,0l-0.18-0.03c-1.96-0.31-4.1-0.48-6.51-0.45l-1.05,0
			l-0.6-0.86c-0.11-0.15-0.32-0.45-0.48-0.65c-3.08-0.26-5.87-0.25-8.49,0.02c-0.21,0.21-0.54,0.66-0.75,0.95l-0.72,0.98l-1.29,0.01
			c-0.55,0.01-1.11,0.01-1.66,0c-0.36,0.01-0.73,0.14-1.1,0.42l-1.19,0.9l-1.2-0.89c-0.31-0.11-1.28,0.06-2.89,0.53
			c-0.04,0.67-0.09,1.33-0.14,1.99c-0.23,2.97-0.45,5.78,0.71,7.62l0.48,0.77l-0.26,0.87c-0.4,1.34-0.47,2.94-0.19,4.38l0.33,1.7
			l-1.12,0.39c0,0.87,0.01,1.73,0.01,2.58c0.02,2.99,0.03,5.81-0.04,8.68c-0.06,2.32,0.32,2.96,0.48,3.13
			c0.2,0.2,0.72,0.22,1.03,0.22c1.2-0.02,1.34-0.35,1.48-0.66l0.79-1.8l1.97,0.82c0.8,0.31,1.72,0.5,2.88,0.59l1.47,0.11l0.39,1.76
			c0.01,0.03,0.01,0.06,0.02,0.09c0.75,0.19,2.44,0.18,3.5,0.17C1841.84-65.3,1842.09-65.3,1842.35-65.3z M568.14-66.52
			c0.73,0.18,0.98,0.06,0.98,0.05c0.01,0,0.68-0.59,0.41-3.88l-0.25-3.08c-0.35-4.3-0.71-8.72-1.13-13.1
			c-0.04,4.95-0.03,9.91-0.02,15.08C568.13-69.81,568.13-68.17,568.14-66.52z M693.02-71.26c0.67,0.1,1.38,0.29,2.06,0.57
			c-0.21-0.62-0.39-1.25-0.56-1.9c-0.16,0.21-0.33,0.41-0.53,0.6C693.7-71.71,693.37-71.46,693.02-71.26z M675.66-71.51
			c1.39,0,2.78,0,4.18,0.01c-0.27-0.17-0.51-0.36-0.74-0.6c-0.33-0.34-0.59-0.72-0.77-1.15C677.55-72.42,676.63-71.89,675.66-71.51z
			 M664.14-71.51c1.23,0,2.45,0,3.68,0l-0.87-1.27C666.02-72.27,665.08-71.87,664.14-71.51z M807.81-72.58h2.05
			c0-2.23,0-4.48,0.01-6.79l0.01-6.68h-3.74c0.54,0.25,1.02,0.59,1.43,1.06c1.71,1.97,1.34,5.04,0.34,11.8L807.81-72.58z
			 M594.38-99.63v25.8c1.1-0.1,2.2-0.2,3.28-0.31c3.99-0.38,7.75-0.74,11.62-0.8c11.62-0.18,22.8-0.11,36.2,0c0.02,0,0.03,0,0.05,0
			c1.09,0,1.39-0.31,1.49-0.42c0.29-0.3,0.76-1.18,0.65-3.72c-0.03-0.68-0.03-1.38-0.02-2.06c0.02-4.05-0.33-4.22-1.69-4.25
			c-2.76-0.06-5.55-0.27-8.24-0.47c-3.88-0.29-7.9-0.58-11.78-0.43c-6.34,0.24-7.54-4.74-7.9-8.51l-0.47-4.84H594.38z M670.67-74.43
			l0.06,0.08c0.37-0.09,0.75-0.17,1.11-0.25c1.63-0.36,3.04-0.67,3.75-1.59c0.29-0.7-0.01-3.31-0.19-4.88
			c-0.06-0.48-0.11-0.97-0.16-1.45c-0.06,0-0.11,0-0.17,0c-0.93,0.02-2.2,0.06-2.46,0.41c-0.78,1.07-1.16,3.27-1.53,5.4
			C670.96-75.95,670.82-75.18,670.67-74.43z M661.31-80.28c-0.3,0.63-0.52,2.57-0.66,3.76c-0.08,0.69-0.16,1.4-0.26,2.08
			c0.16-0.05,0.31-0.11,0.47-0.16c1.46-0.5,2.86-0.97,4.13-1.67c0-0.93-0.13-2.47-0.31-3.23C663.19-80.31,661.86-80.53,661.31-80.28
			z M681.93-83.66c-0.01,1.57-0.05,2.92-0.08,4.07c-0.06,2.11-0.12,4.29,0.16,4.74c0.37,0.21,2.36,0.23,4.29,0.24
			c1.03,0.01,2.23,0.02,3.61,0.05c0.65,0.02,1.09-0.09,1.31-0.31c0.73-0.71,0.75-3.38,0.76-4.67c0.02-3.02-0.4-3.85-0.66-4.08
			c-0.23-0.2-0.85-0.15-1.11-0.11c-1.76,0.23-3.48,0.17-5.15,0.12c-0.7-0.02-1.4-0.05-2.1-0.05H681.93z M664.96-75.67L664.96-75.67
			L664.96-75.67z M675.58-76.17C675.58-76.17,675.58-76.17,675.58-76.17L675.58-76.17z M1755.35-80.79
			C1755.35-80.79,1755.35-80.79,1755.35-80.79C1755.35-80.79,1755.35-80.79,1755.35-80.79z M661.87-84.38
			c2.29,0,4.52,1.22,5.35,1.72c0.2,0.12,0.54,0.33,0.86,0.92c0.31-0.98,0.7-1.89,1.25-2.66c-0.48-0.01-0.97-0.12-1.44-0.36
			c-2.03-1.02-2.46-3.67-2.62-6.38c-0.05-0.77-1.17-2.23-1.68-2.46c-1-0.42-1.76-0.46-2.27-0.14c-0.88,0.56-1.48,2.31-1.57,4.57
			l-0.08,2.05l-2.04-0.13c-0.66-0.04-1.32-0.08-1.98-0.13c0.03,0.03,0.07,0.07,0.1,0.11c1.13,1.14,2.38,2.4,2.9,3.96
			c0.05-0.04,0.1-0.09,0.16-0.13C659.76-84.12,660.82-84.38,661.87-84.38z M1685.66-84.59c0.53,0.23,1.05,0.54,1.52,0.98
			c0.47,0.44,0.85,0.95,1.15,1.52c0.3-0.7,0.72-1.32,1.29-1.81c0.61-0.53,1.33-0.87,2.16-1.02c-0.39-0.23-0.75-0.49-1.1-0.81
			c-0.78-0.71-1.36-1.58-1.8-2.69c-0.34,1.19-0.88,2.11-1.63,2.81C1686.77-85.14,1686.22-84.81,1685.66-84.59z M1704.93-84.3
			c1.55,0.38,2.82,1,3.82,2c0-0.68,0.01-1.37,0.01-2.05c0-0.81,0.01-1.62,0.01-2.43c-0.23,0.27-0.47,0.53-0.7,0.78
			c-0.27,0.29-0.53,0.57-0.75,0.85C1706.51-84.12,1705.34-84.25,1704.93-84.3z M1311.98-84.62c0.66,0.46,1.56,1.22,2.33,2.16
			c0-0.24,0-0.47,0-0.71c0-0.87,0-1.74,0-2.62C1313.66-85.18,1312.91-84.82,1311.98-84.62z M1821.87-84.43
			c0.64,0.43,1.23,1.07,1.72,1.8v-1.17l0.65-0.23c-0.01-0.13-0.01-0.26-0.02-0.4h-0.79C1822.9-84.44,1822.38-84.44,1821.87-84.43z
			 M1751.63-85.81c-0.01,1.01-0.02,2.02-0.02,3.03c0.64-0.75,1.44-1.38,2.26-1.71c-0.85-0.22-1.56-0.62-2.14-1.22
			C1751.69-85.75,1751.66-85.78,1751.63-85.81z M1785.47-84.25c0.13,0.08,0.24,0.17,0.34,0.25v-0.26L1785.47-84.25z M1781.97-84.15
			L1781.97-84.15L1781.97-84.15L1781.97-84.15z M1704.91-84.31C1704.91-84.31,1704.91-84.31,1704.91-84.31c0.01,0,0.02,0,0.03,0
			C1704.93-84.31,1704.92-84.31,1704.91-84.31z M1704.99-84.31C1704.99-84.31,1704.99-84.31,1704.99-84.31
			C1704.99-84.31,1704.99-84.31,1704.99-84.31z M1778.79-84.89c0.39,0,0.78,0,1.17,0h1.02v-1.85c-0.19,0.31-0.41,0.61-0.68,0.87
			C1779.87-85.44,1779.37-85.11,1778.79-84.89z M694.93-85.42c0.1,0.17,0.19,0.35,0.27,0.53c0.09-0.13,0.19-0.26,0.29-0.38
			c0.04-0.05,0.08-0.1,0.12-0.15H694.93z M559.43-96.15v11.19l1.83-0.02v-11.07C560.66-96.08,560.05-96.11,559.43-96.15z
			 M826.75-86.77c0.69,0.41,1.29,0.99,1.5,1.74c0.54-1.49,1.37-2.86,2.59-4.09c-0.33-0.77-0.58-1.63-0.74-2.57
			c-0.31-1.84-0.35-3.74-0.13-6.13c-0.24-2.47-0.31-5.18-0.22-8.73c0.02-0.89,0.03-1.78,0.04-2.68c0-0.19,0-0.38,0.01-0.58
			c-1.05,2.46-3.01,3.69-5.86,3.65c-19.12-0.27-35.87-0.41-51.34-0.43c3.09,0.28,6.18,0.56,9.27,0.84l12.41,1.12l0.52,2.05
			c3.59-3.65,11.75-4.67,17.6-0.87l0.31-2.18h1.73c1.02,0,2.06-0.07,3.17-0.14c2.98-0.2,6.07-0.4,9.07,0.78
			c1.47,0.58,2.63,1.84,3.12,12.2c0.08,1.69-0.99,3.11-1.93,4.37c-0.34,0.45-0.65,0.87-0.88,1.25L826.75-86.77z M1336.13-87.5
			c0,0.79,0,1.58,0,2.37c0.55-0.48,1.2-0.8,1.95-1.02c-0.59-0.24-1.16-0.58-1.68-1.08C1336.31-87.31,1336.22-87.41,1336.13-87.5z
			 M1786.75-85.18h1.05c1.23,0,2.46,0,3.68,0c-2.2-0.53-3.54-1.43-4.35-3.03c-0.05,0.43-0.11,0.85-0.16,1.27L1786.75-85.18z
			 M1891.64-85.78h0.18c0-0.05,0.01-0.09,0.01-0.14l-0.2,0C1891.63-85.87,1891.64-85.82,1891.64-85.78z M544.72-97.2
			c-0.64,3.63-1.16,7.28-1.37,10.92c0.38-3.98,0.97-7.24,1.77-8.93l0.89-1.89C545.59-97.14,545.16-97.17,544.72-97.2z M872.11-86.48
			c1.14,0,2.28,0,3.42,0c-0.41-0.23-0.79-0.52-1.15-0.88c-0.26-0.26-0.49-0.55-0.69-0.86c-0.2,0.39-0.46,0.76-0.78,1.09
			C872.66-86.88,872.4-86.66,872.11-86.48z M861.06-86.49c1.71,0,3.41,0,5.12,0c-0.24-0.16-0.47-0.34-0.68-0.54
			c-0.56-0.54-0.94-1.18-1.2-1.89C863.65-87.66,862.64-86.92,861.06-86.49z M1347.09-89.9c1.62,0,3.23,0.04,4.81,0.07
			c1.41,0.03,2.82,0.06,4.23,0.07l55.51,0.25c53.48,0.24,106.96,0.48,160.44,0.73c33.36,0.16,60.93,0.33,86.76,0.56
			c1.4,0.01,2.64,0.56,3.73,1.05c0.41,0.18,0.81,0.36,1.22,0.5l0.18,0.06l-0.02-0.45l1.66-0.34c0.41-0.08,0.82-0.19,1.24-0.29
			c1.05-0.26,2.14-0.53,3.32-0.57c0.66-0.02,1.33-0.04,1.99-0.07c3.21-0.12,6.54-0.23,9.85,0.13c1.27,0.14,2.1,0.03,2.49-0.34
			c0.37-0.35,0.98-1.49,0.8-5.13c-0.41-8.55-0.42-16.98,0-25.04c0.16-3.21-0.13-5.16-0.91-5.97c-0.33-0.35-1.04-0.82-3.33-0.79
			c-38.57,0.26-77.71,0.17-111.36,0.07c-29.16-0.09-58.81-0.25-87.49-0.41c-12.77-0.07-25.54-0.14-38.31-0.2
			c-1.45,0-2.55,0.02-3.24,0.18l-0.44,0.05c-1.51,0-2.54,0.15-3.47,0.49l-2.7,1.01v-1.54c-0.91-0.08-1.74-0.15-2.5-0.14
			c-5.96,0.01-11.92,0.03-17.88,0.06c-10.24,0.04-20.84,0.08-31.25,0.05c-15.56-0.05-28.28-0.21-40.05-0.51
			c-1.72-0.05-2.68,0.15-3.16,0.64c-0.48,0.49-1.02,1.78-0.87,5.12c0.35,7.58,0.35,15.98,0,25.69c-0.12,3.2,0.38,4.38,0.82,4.79
			c0.14,0.13,0.56,0.54,2.34,0.4C1343.37-89.85,1345.24-89.9,1347.09-89.9z M820.04-87.63c1.06,0,2.11,0.02,3.15,0.04
			c-0.24-0.28-0.51-0.56-0.79-0.86c-0.94-0.99-1.97-2.08-2.51-3.43L820.04-87.63z M1692.46-122.01c-1.25,2.09-1.08,6.81-0.92,10.98
			c0.05,1.49,0.11,3.02,0.1,4.44c-0.04,10.14-0.06,16.26,1.74,17.91c1.4,1.28,5.31,0.92,11.24,0.38c0.05,0,0.09-0.01,0.14-0.01
			c0.12-0.14,0.25-0.27,0.38-0.41c0.41-0.44,1.09-1.18,1.16-1.49c0.18-5.42,0.15-11,0.13-16.9c0-0.77-0.01-1.55-0.01-2.34
			l-1.69,1.38l1.28-5.65c0.08-0.35,0.14-0.72,0.18-1.12c0.04-0.45,0.05-0.82,0.04-1.19c-0.02-0.81-0.14-1.56-0.34-2.27l-1.25-4.32
			c-0.25,0.04-0.49,0.09-0.66,0.13c-0.77,0.16-1.55,0.33-2.39,0.28c-0.85-0.05-1.74-0.16-2.67-0.27
			C1696.62-122.73,1693.13-123.13,1692.46-122.01L1692.46-122.01z M1754.2-103.29c0.01,0.71,0.01,1.43,0.02,2.15
			c0.03,3.17,0.06,6.46-0.08,9.7c-0.1,2.22,0.3,2.8,0.43,2.93c0.15,0.15,0.58,0.23,1.14,0.22c6.09-0.16,13.32-0.31,20.74-0.21
			c0.53,0.01,0.9-0.07,1.04-0.2c0.08-0.08,0.46-0.56,0.45-2.5c-0.02-3.59,0-7.19,0.02-10.78c0.02-4.13,0.05-8.4,0.01-12.59
			c-0.04-5.03-1.77-7.68-5.11-7.87c-3.25-0.18-6.59-0.13-9.83-0.09c-2.42,0.03-4.92,0.07-7.4,0.01c-0.47-0.01-0.84,0.05-0.96,0.17
			c-0.08,0.08-0.45,0.56-0.4,2.58c0.09,3.4,0.07,6.84,0.05,10.17c-0.01,1.44-0.02,2.89-0.02,4.33v2H1754.2z M1790.04-148.45l0,0.49
			c0,1.59,0,3.16,0,4.73c-0.01,4.12-0.01,8.24-0.01,12.36c0,9.3-0.01,18.91-0.08,28.37l0,0.27c-0.05,6.77-0.09,10.86,0.88,12.35
			c0.69,1.06,2.62,1.23,7.54,1.4c5.54,0.19,11.06,0.15,16.91,0.1c2.02-0.02,4.07-0.03,6.16-0.04l0-15.86
			c0-13.46,0.01-26.55-0.01-39.64c-0.01-6.29-0.1-10.19-1.26-11.32c-0.65-0.63-2.18-0.82-4.42-0.84c6.87,14.53,7.3,23.68,1.71,32.08
			c-2.63,3.95-6.48,6.45-10.54,6.85c-3.31,0.33-6.47-0.82-8.86-3.22c-2.21-2.21-4.2-5.73-5.46-9.66c-2.3-7.14-1.59-13.53,0.32-19.08
			L1790.04-148.45z M662.12-97.94c0.86,0,1.87,0.18,3.01,0.66c1.99,0.83,4,3.7,4.13,5.91c0.1,1.73,0.31,2.54,0.45,2.9
			c0.22-0.08,0.58-0.26,1.14-0.63c0.44-0.29,0.88-0.49,1.33-0.64c-1.68-1.71-2.58-3.39-2.77-5.14c-0.38-3.49,2.15-6.14,4.59-8.71
			c0.61-0.64,1.23-1.29,1.8-1.96H657.1l1.33,4.76l-4.74,2.7l-0.79-2.28c-0.53-1.55-1.04-3.15-1.52-4.7
			c-1.13-3.58-2.29-7.29-3.86-10.36c-1.11-2.17-3.67-3.48-5.5-4.28c-0.49-0.22-1.3-0.12-2.16-0.03c-1.19,0.14-2.53,0.29-3.92-0.2
			c-3.26-1.15-5.49,1.23-8.76,5.29c-0.91,1.13-1.85,2.3-2.84,3.3c-0.06,0.08-0.11,0.2-0.16,0.34h0.38l-0.53,0.67
			c-0.27,1.78-0.15,5.17-0.08,7.18c0.04,1.2,0.09,2.36,0.09,3.4c0.01,2.53,0.02,5.68,0.51,6.35c0.22,0.3,2.11,0.36,3.62,0.41
			l0.22,0.01c6.84,0.22,13.52,0.68,20.59,1.16c2.31,0.16,4.64,0.32,6.98,0.47c0.44-2.68,1.55-4.69,3.21-5.75
			C659.86-97.53,660.84-97.94,662.12-97.94z M698-89.42h8.99c-1.55-1.11-3.02-2.49-4.41-3.79l-0.38-0.36
			c-1.1-1.02-1.93-2.38-2.76-3.94L698-89.42z M868.89-134.71c-0.37,0-0.66,0.07-0.84,0.2c-0.29,0.21-0.96,1.04-0.91,4.22
			c0.12,8.94,0.27,17.88,0.41,26.82l0.15,9.48c0.02,1.51,0.06,3.58,0.58,4.09c0.18,0.18,0.64,0.2,0.89,0.19l0,0
			c0.42-0.01,0.73-0.08,0.85-0.2c0.44-0.45,0.4-2.24,0.38-3.55l-0.01-0.74c-0.12-10.27-0.26-20.54-0.4-30.84l-0.13-9.57
			C869.49-134.68,869.17-134.71,868.89-134.71z M681.91-89.93h9.33l12.55-48.82c-2.49-0.88-3.35-0.9-3.62-0.73
			c-0.52,0.34-0.89,2.5-1.08,6.43c-0.11,2.38-0.47,5.01-2.23,6.58c-1.01,0.9-2.33,1.3-3.92,1.2c-1.57-0.11-2.8-0.08-3.88,0.09
			c-1.95,0.3-3.53-0.05-4.71-1.05c-1.53-1.3-2.23-3.47-2.27-7.03c-0.02-1.96-0.05-4.5-0.24-5.78c-0.51,0.25-1.2,0.65-1.88,1.07
			c2.19,3.04,2.08,6.95,1.99,10.48c-0.02,0.77-0.04,1.54-0.04,2.3c0.03,5.21,0.02,10.48,0,15.64h0.94l-0.95,1.9c0,0.17,0,0.33,0,0.5
			C681.9-101.49,681.88-95.69,681.91-89.93z M677.9-101.88c-0.33,0.36-0.67,0.71-0.99,1.05c-1.9,2-3.69,3.88-3.51,5.53
			c0.15,1.4,1.71,3.17,4.51,5.1C677.89-94.1,677.89-98.02,677.9-101.88z M778.51-90.68c4.98,0.01,10.02,0.01,15.12,0.01
			c-0.7-0.22-1.28-0.63-1.77-0.98c-0.2-0.14-0.39-0.28-0.58-0.38l-1.63-0.91l0.79-1.69c0.02-0.04,0.04-0.08,0.05-0.12l-0.35,0.21
			C786.88-92.59,782.73-91.32,778.51-90.68z M818.6-96.91l0.16,3.59l-1.7,0.33c-1.18,0.23-2.35,0.47-3.53,0.72
			c-2.73,0.57-5.55,1.16-8.39,1.5c-0.32,0.04-0.64,0.07-0.95,0.1c0.31,0,0.63,0,0.94,0c2.76,0,5.52-0.44,8.44-0.91
			c1.34-0.21,2.74-0.44,4.12-0.61l2-0.25c-0.08-0.28-0.14-0.58-0.17-0.88C819.36-94.87,819.05-96.07,818.6-96.91z M755.57-90.75
			c3.34,0.02,6.71,0.03,10.08,0.04c-1.15-0.22-2.19-0.5-3.11-0.85c-2.49-0.94-4.03-2.32-4.59-4.09l-0.83-2.6h35.34
			c0.31-0.19,0.67-0.3,1.1-0.31c6.05-0.14,12.19-0.14,18.15-0.13l0.07-0.47h-20.3l0.06-0.06c-1.19,0.39-2.42,0.75-3.76,0.77
			c-9.71,0.14-19.28,0.15-28.43,0.04c-1.69-0.02-2.93,0.09-3.49,0.72c-0.38,0.43-0.96,1.67-0.52,5.15L755.57-90.75z M719.97-91.09
			c10.21,0.15,20.38,0.25,30.65,0.31c-2.96-0.91-4.64-2.98-5.18-6.42c-0.87,1.67-2.68,3.15-4.32,3.39c-2.74,0.4-5.49,0.56-8.16,0.71
			c-1.49,0.08-2.98,0.17-4.46,0.29c-1.74,0.15-3.17-0.27-4.23-1.23c-0.37-0.34-0.68-0.73-0.93-1.15
			C722.65-93.4,721.48-92.01,719.97-91.09z M819.01-101.86c0.46,0.22,0.88,0.48,1.27,0.79c1.8,1.44,2.85,3.83,3.22,7.32
			c0.07,0.65,0.82,1.49,1.6,2.32c0.34-0.47,0.67-0.98,0.7-1.22c-0.29-6.08-0.81-8.15-1.04-8.8
			C823.02-102,821.07-101.98,819.01-101.86z M1751.67-91.55l0.47,0.02L1751.67-91.55z M568.88-96.83l0.68,1.17
			c0.17,0.29,0.38,0.57,0.58,0.85c0.28,0.38,0.58,0.8,0.85,1.27c-0.06-1.87-0.05-3.77,0.03-5.69l-0.09,0.08
			c-0.23,0.22-0.52,0.58-0.79,0.92C569.77-97.77,569.36-97.26,568.88-96.83z M713.22-94.11c1.21,0.31,2.36,0.36,3.38,0.12
			c0.15-0.03,0.29-0.07,0.42-0.12H713.22z M769.42-94.25c1.52,0.1,3.16,0.11,4.84,0H769.42z M794.8-94.5l0.21,0
			c3.01,0.06,6.11,0.12,9.1-0.19c-3.13,0.01-6.28,0.04-9.41,0.1c0,0.01-0.01,0.02-0.01,0.02C794.73-94.54,794.77-94.52,794.8-94.5z
			 M794.85-94.48L794.85-94.48C794.85-94.48,794.85-94.48,794.85-94.48z M749.25-100.49c-0.1,3.63,0.62,5.07,1.92,5.7
			c0-2.48,0.55-4.28,1.69-5.56c1.74-1.96,4.28-2.09,6.53-2.06c5.17,0.06,10.47,0.09,15.85,0.07c-7.57-0.68-15.15-1.37-22.72-2.07
			c-1.33-0.12-2.05-0.04-2.4,0.27C749.89-103.92,749.32-103.14,749.25-100.49L749.25-100.49z M565.91-95.83v0.53
			c0.05-0.09,0.1-0.17,0.14-0.26l0.13-0.25C566.09-95.82,566-95.83,565.91-95.83z M727.5-107.3c-0.29,0-0.5,0.05-0.61,0.14
			c-0.47,0.41-0.7,1.98-0.68,4.65l0,0.13c0.02,2.1,0.03,4.72,0.76,5.38c0.25,0.23,0.79,0.23,1.19,0.2c1.52-0.13,3.05-0.22,4.58-0.3
			c2.58-0.15,5.24-0.29,7.8-0.67c0.38-0.1,1.32-0.93,1.44-1.49c1.01-4.41,0.5-6.24-0.11-7.01c-0.21-0.26-0.84-1.05-3.36-1.05
			c-0.01,0-0.02,0-0.02,0l-1.86,0v0.14h-2c-0.62,0-1.25,0.02-1.87,0.05c-1.51,0.06-3.08,0.12-4.69-0.13
			C727.85-107.28,727.66-107.3,727.5-107.3z M1891.5-97.75c0.08,0.24,0.16,0.48,0.22,0.72c0.05-0.92,0.07-1.81,0.04-2.65
			C1891.67-99.06,1891.58-98.42,1891.5-97.75z M584.47-109.01c1.38,0.13,2.5,0.52,3.43,1.33c1.91,1.66,2.38,4.36,2.49,9.74v-5.69
			h7.38c-3.73-1.02-6.76-2.49-7.85-4.36l-1.76-3.01h6.74c-2.34-0.22-4.46-3.84-4.52-5.99c-0.03-1.11-0.02-2.22,0.01-3.34
			C588.88-115.7,587.32-110.94,584.47-109.01z M718.45-98.11h3.97c-0.1-0.7-0.15-1.44-0.18-2.21
			C721.15-99.35,719.85-98.63,718.45-98.11z M703.69-98.11h1.39c-0.69-0.26-1.33-0.56-1.9-0.9
			C703.35-98.69,703.52-98.39,703.69-98.11z M548.93-100.9c0.49,0.04,0.98,0.07,1.46,0.11c5.8,0.43,10.82,0.8,15.85,0.97
			c0.22-0.22,0.56-0.63,0.78-0.9c-0.01-0.02-0.02-0.04-0.04-0.06c-0.21-0.33-0.54-0.83-0.76-1.11c-6.33-0.24-12-0.19-17.29,0.14
			V-100.9z M547.77-100.99c0.03,0,0.05,0,0.08,0.01l0.13-0.28C547.91-101.18,547.84-101.08,547.77-100.99z M558.6-106.04
			c2.63,0,5.35,0.06,8.21,0.17c1.7,0.07,2.67,1.59,3.54,2.92c0.26,0.4,0.53,0.82,0.75,1.1l0.08,0.1c0-0.04,0.01-0.08,0.01-0.12
			c0.11-1.43,1-3.2,2.19-4.53c-0.59,0.01-1.17,0.01-1.75,0.01c-0.96,0-1.91,0.01-2.85,0.04c-3.61,0.13-7.27,0.06-10.8,0
			c-3.11-0.06-6.32-0.12-9.46-0.04c-0.72,0.02-1.89,0.55-2.21,0.92l-0.07,0.34c0.47-0.31,0.98-0.52,1.57-0.56
			C551.25-105.92,554.81-106.04,558.6-106.04z M1846.94-101.79L1846.94-101.79L1846.94-101.79z M1825.43-105c0,0.24,0,0.47,0,0.71
			l0,2.13c1.33-0.43,2.53-0.78,3.61-0.96c-0.91,0-1.78-0.21-2.55-0.76C1826.06-104.18,1825.72-104.56,1825.43-105z M1830.42-103.24
			c0.46,0,0.89,0.05,1.29,0.16c0.77-0.38,1.6-0.57,2.47-0.58c0.32,0.01,0.62,0.01,0.91,0c0.31-0.39,0.64-0.78,1.02-1.1
			c-0.88,0.16-1.76,0.38-2.62,0.66c-1,0.33-2.06,0.67-3.1,0.85C1830.4-103.24,1830.41-103.24,1830.42-103.24z M1785.67-103.91
			l0.27,0.68c0.01-1.1,0.02-2.2,0.02-3.3c-0.04,0.06-0.08,0.13-0.12,0.19l-1.44,2.5L1785.67-103.91z M618.9-103.63h1.03
			c-0.01-0.39-0.03-0.77-0.04-1.14C619.57-104.33,619.25-103.95,618.9-103.63z M1850.21-104.12c2.15,0.03,4.1,0.19,5.93,0.46
			c0.1,0,0.2,0,0.3-0.01c-0.51-0.14-1-0.3-1.5-0.46c-1.21-0.39-2.36-0.76-3.38-0.78c-0.74-0.01-1.48-0.04-2.22-0.07
			C1849.68-104.73,1849.96-104.43,1850.21-104.12z M1781.98-106.87c0,1.06-0.01,2.11-0.01,3.16l2.08-0.11l-1.6-2.41
			C1782.31-106.46,1782.14-106.66,1781.98-106.87z M700.26-104.6h21.98c0.09-1.86,0.41-3.61,1.38-4.88
			c-0.8-0.05-1.52-0.19-2.17-0.45l0.12,0.65h-21.23l-0.85,3.32l0.75,1.32C700.25-104.63,700.25-104.61,700.26-104.6z M546.28-105.42
			C546.28-105.42,546.28-105.42,546.28-105.42C546.28-105.42,546.28-105.42,546.28-105.42z M742.52-110.6
			c1.01,0.43,1.83,1.04,2.48,1.85c0.67,0.84,1.12,1.84,1.36,3.04c0.31-0.56,0.68-1.03,1.13-1.42c0.14-0.13,0.29-0.24,0.44-0.35
			c-0.45-0.27-0.87-0.62-1.24-1.06c-0.75-0.91-1.09-2.04-1.19-3.24C744.74-111.2,743.77-110.83,742.52-110.6z M601.24-107
			c5.3,1.05,11.83,1.49,14.99,0.38c0.08-0.07,0.2-0.21,0.33-0.38H601.24z M616.2-106.58C616.2-106.58,616.2-106.58,616.2-106.58
			C616.2-106.58,616.2-106.58,616.2-106.58z M675.68-109.54h2.24c0-0.54,0-1.08,0-1.62C677.32-110.36,676.62-109.74,675.68-109.54z
			 M768.68-110.6c16.58,0,34.56,0.14,55.32,0.43c1.16,0.01,2.24,0.03,2.61-3.31c0.16-1.44,0.19-2.9,0.22-4.46
			c0.02-1.2,0.05-2.44,0.14-3.68c0.19-2.58-0.31-3.3-0.47-3.45c-0.31-0.31-1.12-0.3-1.58-0.27c-2.88,0.21-5.78,0.16-8.59,0.12
			c-0.53-0.01-1.06-0.02-1.59-0.02v0.29l-1.99,0.01c-1.46,0.01-2.82,0.02-4.18,0.07c-0.41,0.01-0.8,0.03-1.19,0.04l-0.92,0.04
			c-1.87,0.01-4.09,0.01-6.38-0.14c-1.23-0.08-1.7,0.15-1.85,0.25l-0.47,0.33l-0.57,0.03c-1.49,0.09-2.97,0.18-4.46,0.28l-0.65,0.04
			l-0.55-0.35c-0.27-0.17-0.72-0.26-1.31-0.27c-12.5-0.06-24.9-0.39-37.57-0.75c-1.23-0.03-1.55,0.29-1.66,0.4
			c-0.28,0.28-0.75,1.12-0.67,3.52c0.06,1.93-0.12,3.97-0.52,5.92c-0.67,3.26-0.26,4.21-0.05,4.46c0.2,0.25,0.8,0.52,2.56,0.53
			C757.66-110.58,763.1-110.6,768.68-110.6z M653.39-118.8l2.05,7.33l-0.01-0.28l1.69-0.34c0.56-0.11,1.12-0.25,1.69-0.39
			c1.37-0.33,2.78-0.68,4.28-0.74c1.6-0.07,3.21-0.04,4.76-0.02c2.35,0.04,4.58,0.07,6.78-0.19c0.29-0.34,0.75-1.17,1.05-1.69
			c0.12-0.22,0.25-0.44,0.38-0.67c-0.16-0.28-0.31-0.56-0.47-0.83c-0.33-0.59-0.85-1.53-1.17-1.9c-3.5-0.34-7.13-0.28-10.65-0.23
			c-1.39,0.02-2.77,0.04-4.16,0.04h-1.22l-2.31-4.51l2.41-1.8l-2.04-1.03l1.84-4.23h12.66l0.17,2.12c0.05-0.64,0.14-1.28,0.31-1.89
			c0.47-1.71,1.89-6.91,0.71-8.45c-0.53-0.7-1.94-1.04-4.32-1.05c-6.16-0.02-7.05-0.22-9.65-5.39l-0.69-1.36l-0.12,1.01
			c-0.46,3.84-0.63,5.28-2.24,5.91c-1.5,0.59-2.63-0.38-4.07-1.6c-1.04-0.89-2.11-0.66-2.82-0.32c-1.47,0.71-3,2.78-2.9,5.64
			c0.12,3.17,0.56,6.35,0.94,7.63c1.43,0.16,3.11-0.26,5.02-0.73c1.03-0.26,2.09-0.52,3.23-0.72l3.6-0.65L653.39-118.8z
			 M703.9-113.28h12.87c-0.26-1.45-0.52-2.89-0.78-4.31c-1.34-7.42-2.61-14.43-4.01-21.37c-0.16-0.15-0.51-0.35-0.71-0.39
			c-0.46,0.05-1.1,0.33-1.32,0.54c-1.76,6.89-3.36,13.82-5.04,21.15C704.58-116.21,704.24-114.75,703.9-113.28z M721.78-120.57
			c-0.12,2.58-0.12,5.89,0.78,6.71c0.73,0.67,3.16,0.38,4.93,0.1c2.79-0.44,5.58-0.45,8.28-0.46l0.65,0
			c4.15-0.02,6.14-0.06,6.77-0.92c0.82-1.11,1.04-4.18,1.29-9.2c-0.55,0.21-1.09,0.42-1.62,0.62c-3.04,1.17-6.18,2.38-9.4,2.93
			c-3.22,0.55-6.45,0.42-9.57,0.3C723.19-120.52,722.48-120.55,721.78-120.57z M614.45-123.82c0.23,0,0.46,0.01,0.7,0.03
			c2.53,0.23,4.36,0.39,5.51,1.85c1.26,1.59,1.05,3.89,0.44,8.24c0.12-0.16,0.24-0.31,0.38-0.45c0.85-0.86,1.69-1.9,2.58-3.01
			c3.14-3.89,7.04-8.73,13.21-6.55c0.52,0.18,1.3,0.09,2.13,0c1.22-0.14,2.74-0.31,4.22,0.33c1.75,0.76,4.02,1.92,5.78,3.77
			l2.13-5.12c-2.38,0.58-4.65,1.04-6.99,0.42c-0.42-0.11-1.1-0.29-1.74-1.68c-0.35,0.49-0.75,0.87-0.99,1.06
			c-0.63,0.52-1.6,1.11-2.69,0.96c-1.82-0.25-3.46-2.41-3.65-4.1c-0.02-0.13-0.03-0.27-0.04-0.4c-1.05,1.03-2.51,1.56-4.33,1.57
			c-1.89,0.01-3.18-0.52-4.09-1.36v3.25l-4.81,0.05v-3.65c-0.63,0.56-1.48,1-2.62,1.23c-2.82,0.58-5.62,0.29-8.33,0.01l-0.86-0.09
			c-1.64-0.16-3.13-1.77-3.7-3.3c-0.04,0.82-0.14,1.54-0.3,2.18l0.61-0.42l0.78,2.67c0.93,3.18,1.88,3.05,4.41,2.7
			C612.92-123.71,613.67-123.82,614.45-123.82z M595.53-114.97c5.97,0.24,12.03,0.21,17.89,0.19c1.26-0.01,2.53-0.01,3.79-0.01
			c0.27-2.02,0.5-4.02,0.31-4.62c-0.4-0.17-1.63-0.28-2.72-0.38c-0.59-0.05-1.31,0.05-2.07,0.15c-2.19,0.3-5.65,0.79-7.8-3.08
			c-2.24,1.4-4.33,2.27-6.39,1.69c-1.52-0.43-2.72-1.48-3.93-3.36c-0.19,2.61-0.31,4.97-0.25,7.3
			C594.39-116.62,595.06-115.42,595.53-114.97z M674.93-122.49c0.07,0.01,0.14,0.01,0.21,0.02c1.2,0.13,2.06,0.94,2.79,1.99
			c0-1.56-0.01-3.13-0.01-4.68c0-0.8,0.02-1.61,0.04-2.42c0.1-3.79,0.05-6.44-1.4-8.24c-0.09,1.96-0.59,4.25-1.29,6.83
			c-0.23,0.84-0.22,1.97-0.22,3.06c0,0.59,0,1.16-0.02,1.71L674.93-122.49z M1802.41-122c1.23,0.72,2.63,1.02,4.11,0.87
			c2.83-0.28,5.67-2.18,7.61-5.09c0.28-0.42,0.54-0.85,0.79-1.28c-0.23,0.26-0.48,0.51-0.73,0.75c-1,1.82-2.38,3.11-3.99,3.75
			l-0.06,0.02C1807.76-121.59,1805-121.24,1802.41-122z M828.97-121.47l0.24,0.02L828.97-121.47z M1705.24-122.69l0.77,0.46
			c-0.13-0.31-0.23-0.4-0.24-0.41C1705.69-122.71,1705.49-122.71,1705.24-122.69z M662.3-122.88l-0.21,0.15c0.07,0,0.14,0,0.21,0
			L662.3-122.88z M1809.86-122.91l-0.03,0.01C1809.84-122.9,1809.85-122.9,1809.86-122.91z M1681.21-129.45
			c1.96,0,4.39,0.25,6.09,2.03c0.82,0.86,1.38,1.95,1.71,3.4c0.01-0.01,0.01-0.02,0.02-0.04v0c1.28-2.15,3.65-2.7,6.17-2.7
			c0.01,0,0.03,0,0.05,0c-1.16-0.29-2.3-0.62-3.43-0.94c-2.92-0.83-5.67-1.61-8.25-1.7c-37.86-1.36-76.39-1.48-113.65-1.6
			c-6.1-0.02-12.2-0.04-18.3-0.06c-33.04-0.13-66.63,0-99.12,0.14l-10.78,0.04c-1.08,0.01-2.11-0.07-3.09-0.53
			c-0.75,0.05-1.54-0.03-2.38-0.17c-1.6,1.24-3.91,1.34-6.98,1.34c-4.04-0.01-8.08,0.01-12.12,0.03c-3.97,0.02-7.93,0.04-11.91,0.03
			c-9.71-0.01-19.42-0.04-29.14-0.06c-10.39-0.02-20.77-0.05-31.16-0.06c11.05,0.26,23.05,0.41,37.5,0.45
			c10.41,0.03,20.99-0.01,31.23-0.05c5.96-0.02,11.93-0.05,17.89-0.06c1.01,0,2.03,0.09,3.09,0.18c0.5,0.04,1.01,0.09,1.56,0.13
			l1.21,0.08c0.95-0.16,1.84-0.2,2.61-0.2c1.02-0.2,2.23-0.23,3.92-0.23c12.77,0.06,25.54,0.13,38.31,0.2
			c28.67,0.16,58.32,0.32,87.48,0.41c33.65,0.1,72.78,0.19,111.32-0.07C1681.11-129.45,1681.16-129.45,1681.21-129.45z
			 M718.79-124.6h1.1c0.42,0,0.84,0,1.25,0.01c-1.06-0.48-1.95-1.13-2.71-1.95C718.55-125.89,718.67-125.25,718.79-124.6z
			 M1749.79-128.87c0.03,0.03,0.06,0.06,0.1,0.09c0.9,0.88,1.49,2.07,1.82,3.74c0.04-0.05,0.09-0.1,0.14-0.15
			c0.57-0.57,1.28-0.96,2.13-1.17c-0.75-0.31-1.43-0.74-2.06-1.15c-0.28-0.18-0.56-0.36-0.84-0.51
			C1750.62-128.28,1750.2-128.57,1749.79-128.87z M1705.93-126.67c0.81,0.07,1.63,0.33,2.38,0.94c0.24,0.2,0.47,0.43,0.67,0.68
			c0.26-1.51,0.77-2.85,1.77-3.83c1.14-1.11,2.74-1.61,4.88-1.54c9.37,0.33,19.05,0.32,28.77-0.02c1.4-0.05,3.09,0.03,4.55,0.92
			c-0.81-0.62-1.79-1.37-2.32-1.38c-11.69-0.36-23.09-0.29-32.69-0.18c-0.94,0.01-2.17,0.67-3.36,1.31l-0.65,0.35
			c-0.6,0.31-1.24,0.8-1.92,1.32C1707.35-127.62,1706.67-127.1,1705.93-126.67z M1797.28-142.44l0.04,0.07l-0.17,0.74
			c-0.26,1.11-0.24,2.37,0.06,3.55l0.06,0.36c0.03,0.44,0.09,0.86,0.19,1.25l0.06,0.44c0.02,0.88,0.07,1.63,0.17,2.29
			c0.17,1.15,0.55,2.05,1.12,2.67l0.32,0.34l0.13,0.45c0.59,2.02,1.98,3.58,3.84,4.28c1.71,0.65,3.6,0.46,5.17-0.53l0.57-0.25
			c0.73-0.32,1.44-1.08,1.98-2.14l0.17-0.34l0.29-0.25c2.36-2.08,3.63-5.66,3.56-10.08c-0.01-0.98-0.22-1.98-0.59-2.87l-0.12-0.41
			c-0.12-0.65-0.28-1.26-0.48-1.81c-0.49-1.34-1.18-2.51-1.85-3.11l-0.47-0.42l-0.2-0.88c-0.48-1.83-1.49-4.2-3.58-5.07
			c-1.29-0.54-2.76-0.47-4.04,0.19c-1.54,0.79-2.65,2.36-3.12,4.43c-0.01,0.06-0.02,0.12-0.03,0.18c-0.01,0.1-0.03,0.2-0.05,0.3
			l-0.05,0.25L1797.28-142.44z M1808.93-126.8c-0.01,0-0.02,0-0.02,0.01L1808.93-126.8z M825.36-129.36c1.69,0,3,0.48,3.98,1.46
			c0.21,0.21,0.39,0.43,0.56,0.67c0.27-0.59,0.61-1.1,1.03-1.53c1.03-1.06,2.33-1.46,3.53-1.6c-9.35,0.28-18.42,0.51-27.47,0.69
			c-4.61,0.09-7.8,0.15-9.98-1.82l-1.69-0.04c-0.21,0-0.44,0.01-0.67,0.01c-1.48,1.89-3.99,1.91-7.5,1.94
			c-11.28,0.1-21.07,0.21-30.14,0.34c11.18,0.31,22.19,0.58,33.25,0.63c1.08,0.01,2,0.19,2.8,0.55c1.14-0.07,2.28-0.15,3.42-0.21
			c1.03-0.54,2.31-0.75,3.89-0.65c2.15,0.15,4.28,0.15,6.07,0.13l0.79-0.03c0.41-0.02,0.81-0.03,1.22-0.04
			c0.76-0.03,1.53-0.04,2.29-0.05v-0.34h2c1.22,0,2.44,0.02,3.66,0.04c2.71,0.04,5.52,0.09,8.23-0.11
			C824.89-129.35,825.13-129.36,825.36-129.36z M747.73-128.74l0.34,1.03c0,0.01,0.01,0.02,0.01,0.03c0.04-0.04,0.07-0.08,0.11-0.11
			c0.65-0.65,1.47-1.11,2.43-1.35c-0.78,0.01-1.56,0.02-2.34,0.04c-0.1,0.06-0.23,0.15-0.33,0.22
			C747.89-128.84,747.81-128.79,747.73-128.74z M1334.6-130.54c0.52,0.78,0.86,1.72,1.09,2.84c0.2-0.3,0.42-0.57,0.67-0.82
			c1.16-1.18,2.64-1.63,4.13-1.78C1338.45-130.3,1336.34-130.22,1334.6-130.54z M594.76-133.09l0.22,0.49
			c0.57,1.3,1.39,3.17,2.25,4.75l6.98-11.74c-0.31-1.17-0.63-2.39-0.97-3.69l-0.36-1.33c-0.18,0.07-0.36,0.12-0.54,0.14
			c-1.34,0.21-2.85-0.57-3.73-1.3c-0.06-0.05-0.12-0.11-0.18-0.16C597.42-141.55,596.14-137.27,594.76-133.09z M639.22-137.82h0.04
			l0.1,2c0,0.73-0.02,1.47-0.03,2.21c-0.04,1.79-0.07,3.48,0.11,5.11c0.01,0.02,0.02,0.05,0.03,0.08c0.23-5.44,0.28-10.26,0.14-14.7
			c-0.14,0.27-0.25,0.53-0.29,0.77l-1.98-0.31l1.98,0.31c-0.21,1.35-0.16,2.84-0.11,4.42C639.22-137.91,639.22-137.87,639.22-137.82
			z M686.22-131.25c0.19,1.36,0.54,1.82,0.72,1.97c0.31,0.27,1,0.23,1.51,0.15c1.38-0.21,2.89-0.26,4.77-0.13
			c0.71,0.05,0.92-0.14,0.99-0.2c0.18-0.16,0.45-0.57,0.65-1.6c-0.87,0.74-1.93,1.22-3.08,1.38c-2.28,0.31-4.09-0.16-5.37-1.39
			C686.34-131.13,686.28-131.19,686.22-131.25z M859.06-130.48c1.75,0,3.09,0.45,4.09,1.38c-0.01-0.38-0.01-0.76-0.02-1.14
			c-0.01-0.66,0-1.4,0.07-2.15c-1.21,0.75-2.68,1.19-4.21,1.24c-7.9,0.26-15.46,0.51-22.83,0.73c7.14,0.26,14.5,0.25,22.49-0.05
			C858.8-130.47,858.93-130.48,859.06-130.48z M748.37-129.16C748.37-129.16,748.37-129.16,748.37-129.16
			S748.37-129.16,748.37-129.16z M631.06-142.03c-0.78,0-1.32,0.14-1.59,0.43c-0.51,0.54-0.72,1.94-0.61,4.18
			c0.03,0.56,0.04,1.13,0.05,1.69c0.09,4.41,0.52,4.88,2.14,4.84c0.79-0.01,1.33-0.17,1.61-0.48c0.81-0.88,0.61-3.63,0.54-4.53
			l-0.01-0.12l0.01-0.12c0.07-1.62,0.2-4.62-0.62-5.48c-0.26-0.27-0.77-0.42-1.51-0.42C631.07-142.03,631.07-142.03,631.06-142.03z
			 M610.98-131.4l0.67,0.07c2.52,0.26,4.89,0.51,7.11,0.05c1.13-0.23,1.39-0.81,1.08-4.41c-0.11-1.29-0.23-2.63-0.05-3.87
			c-0.06-0.48-0.62-1.6-1.03-2.08c-3.1-0.27-6.27-0.23-9.62-0.19c-0.46,0.01-0.91,0.01-1.38,0.02c0.12,0.47,0.24,0.93,0.36,1.38
			c0.8,3.06,1.49,5.7,2.3,8.25C610.51-131.9,610.8-131.55,610.98-131.4z M611.05-131.36L611.05-131.36L611.05-131.36z
			 M688.25-139.33c-0.08,2.91,0.22,4.71,0.92,5.37c0.36,0.34,1.06,0.45,2.08,0.31c1-0.13,1.47-0.9,1.67-1.35
			c0.31-0.71,0.27-1.4,0.06-1.69c-0.9-1.28-2.53-1.86-4.43-2.54C688.45-139.26,688.35-139.29,688.25-139.33z M1326.47-134.14
			c0.34,0.04,0.69,0.08,1.03,0.14c0.59,0.1,1.15,0.21,1.66,0.33c-0.42-0.55-0.79-1.16-1.1-1.84
			C1327.63-134.96,1327.1-134.5,1326.47-134.14z M873.41-137.7l0.4,0.14l0.01,0.39c0.19-0.24,0.39-0.46,0.62-0.67
			c0.25-0.23,0.53-0.42,0.82-0.59c-0.71-0.14-1.31-0.37-1.85-0.77V-137.7z M869.48-138.69c0.63,0.05,1.31,0.17,2.03,0.37l-1.32-1.17
			c-0.23,0.26-0.46,0.52-0.69,0.78C869.49-138.7,869.48-138.69,869.48-138.69z M709.91-138.77L709.91-138.77L709.91-138.77z
			 M687.69-143.84c0.7,0.31,1.44,0.58,2.21,0.85c2.03,0.73,4.31,1.54,5.93,3.46c0.41-1.48,1.07-2.6,2.16-3.31
			c2.24-1.45,5.23-0.46,8.91,0.99l0.32,0.12c1.09-1.02,2.7-1.56,3.87-1.63h0c0.68-0.04,1.45,0.14,2.18,0.49
			c-0.64-1.27-1.52-1.23-2.72-1.17c-5.57,0.25-11.22,0.25-16.68,0.26l-3.65,0.01c-0.2,0-0.39,0.01-0.59,0.01
			C689.09-143.74,688.41-143.72,687.69-143.84z M619.81-139.64C619.81-139.64,619.81-139.64,619.81-139.64
			C619.81-139.64,619.81-139.64,619.81-139.64z M619.18-141.6C619.18-141.6,619.18-141.6,619.18-141.6
			C619.18-141.6,619.18-141.6,619.18-141.6z M663.74-143.76c0.69,0.19,2.08,0.2,4.07,0.21c2.2,0.01,4.85,0.23,6.67,1.76
			c0.13-0.84,0.32-1.56,0.44-1.97l0.19-0.65c-1.02,0.18-2.03,0.23-2.97,0.28c-0.75,0.04-1.46,0.08-2.13,0.17
			C667.94-143.66,665.89-143.69,663.74-143.76z M678.34-145.54l0.8,3.41c1.96-1.1,3.39-1.55,4.79-0.79c0.19,0.1,0.36,0.22,0.52,0.35
			l0.24-2.72l0.64,0.31c-0.77-0.72-1.43-1.86-1.82-3.65c-0.41-0.21-1.11-0.42-1.62-0.51C680.81-147.39,679.6-146.26,678.34-145.54z
			 M642.47-146.15c0.59,0.67,1.1,1.47,1.13,2.49c0.01,0.34,0.02,0.68,0.03,1.02c0.79-0.96,1.74-1.74,2.84-2.27
			c0.13-0.06,0.26-0.12,0.39-0.17C645.38-145.46,643.92-145.82,642.47-146.15z M617.67-145.73c0.64,0.04,1.27,0.09,1.91,0.15h0
			c0.86,0.08,1.64,0.6,2.4,1.57c0.07,0.09,0.14,0.19,0.22,0.29v-2.86C620.67-146.27,619.16-145.99,617.67-145.73z M631.06-146.03
			c0.01,0,0.03,0,0.04,0c1.87,0.01,3.34,0.56,4.38,1.66c0.07,0.07,0.14,0.15,0.2,0.23c0.33-0.88,0.83-1.62,1.28-2.3
			c0.15-0.23,0.31-0.46,0.45-0.69c-4.43-0.69-8.82-0.85-13.27,0.14c-0.03,0.01-0.06,0.01-0.09,0.02l2.94-0.03v2.25
			C628.02-145.6,629.38-146.03,631.06-146.03z M604.61-145.8h0.56c0.58,0,1.14,0,1.71-0.01c-0.06-0.05-0.13-0.1-0.19-0.16
			c-0.4-0.35-0.74-0.76-1.03-1.25C605.38-146.7,605.02-146.21,604.61-145.8z M601.95-148.42L601.95-148.42
			C601.95-148.42,601.95-148.42,601.95-148.42z M601.29-148.74c0.12,0.08,0.27,0.17,0.4,0.23c0.21-0.21,0.45-0.53,0.52-0.72
			l0.03-0.97c0.15-4.11,0.29-8.06-1.07-11.45C601.16-157.4,601.17-153.03,601.29-148.74z M1787.87-153.74
			c-0.13,0.59-0.25,1.18-0.37,1.77l2.68-0.61L1787.87-153.74z M1793.16-155.57l2.07,1.03c0.23-0.46,0.47-0.91,0.72-1.36
			L1793.16-155.57z M1805.71-158.53c1.14,0,2.28,0.22,3.35,0.67c0.69,0.29,1.33,0.66,1.91,1.12c-0.07-0.13-0.13-0.26-0.2-0.4
			l-1.29-2.56h-6.58l-1.39,2.23c0.04-0.02,0.09-0.05,0.13-0.07C1802.93-158.2,1804.32-158.53,1805.71-158.53z M1819.07-159.86
			c1.2,0.19,2.21,0.52,3.06,1.08c-0.6-1.62-1.34-3.08-2.23-4.35c-0.22-0.01-0.45-0.03-0.67-0.05L1819.07-159.86z M1790.32-159.69
			c-0.06,0.15-0.12,0.3-0.17,0.45l3.8-0.45H1790.32z M1793.45-164.08c-0.29,0.29-0.57,0.59-0.85,0.91l0.44-0.25
			c1.02-0.59,2.04-1.08,3.05-1.49C1795.16-164.71,1794.27-164.44,1793.45-164.08z M600.82-168.96c0.22,0.19,0.42,0.39,0.62,0.59
			c-0.25-0.41-0.45-0.59-0.55-0.63C600.89-169,600.87-168.99,600.82-168.96z"/>
		<path class="st0" d="M1304.52-133.4h-260.54l-0.01-6.94l1.96-0.04c51.73-1.03,104.31-0.45,155.16,0.1
			c33.27,0.36,67.67,0.74,101.5,0.66l2.04,0L1304.52-133.4z"/>
		<path class="st0" d="M1050.34-134.73h-162.7l3.19-3.37c0.84-0.89,1.89-2,25.87-2.73c13.24-0.4,31.22-0.59,50.64-0.54
			c7.43,0.02,72.74,0.29,77.02,2.94L1050.34-134.73z"/>
		<path class="st0" d="M154.98,319.1c-0.18,0-0.33-0.04-0.5-0.1l-0.91-0.28l-0.86-2.11l0.93-0.94c0.48-0.48,1.74-1.76,97.64-68.11
			c3.1-2.15,5-3.46,5.26-3.64c4.11-2.87,8-4.8,11.76-6.68c3.44-1.71,6.99-3.48,10.67-5.96c6.97-4.71,14.58-8.24,21.94-11.67
			c6.16-2.86,12.53-5.83,18.36-9.42c8.82-5.43,46.97-23.59,51.29-25.65c1.76-0.84,3.18,0.4,3.86,1c0.09,0.08,0.22,0.19,0.32,0.27
			l14.22-2.3l-13.45,6.15c-33.9,15.51-90.06,44.64-121.69,64.66l-2.02,1.28l-0.02-0.06c-6.33,4.04-27.66,18.25-46.77,30.98
			c-12.13,8.08-24.25,16.16-33.38,22.2C158.06,317.73,155.98,319.1,154.98,319.1z"/>
		<path class="st0" d="M628.81,154.91l-2.26-6.57l1.22-0.87c1.18-0.84,2.36-1.67,3.54-2.5c2.54-1.78,5.16-3.62,7.7-5.52
			c6.69-5,13.38-11.12,17.04-22.02c5.2-15.46,3.66-32.49-4.22-46.72c-0.26-0.48-1.58-0.92-3.26-0.82c-1.12,0.07-2.37,0.61-3.7,1.18
			c-0.67,0.29-1.33,0.57-2,0.81l-2.09,0.76l-1.36-5.49l5.29-3.25l-5.61-4.28l2.15-5.62l1.8,0.58c5.86,1.87,11.1,6.78,14.74,13.8
			c9.04,17.43,9.92,36.54,2.56,55.27c-4.46,11.33-12.15,17.79-19.81,23.08c-2.19,1.51-4.37,3.03-6.55,4.56L628.81,154.91z
			 M649.13,65.88c0.72,0.01,1.68,0.08,2.67,0.35c-0.34-0.47-0.68-0.92-1.04-1.35L649.13,65.88z"/>
		<path class="st0" d="M47.11,283.55l-3.95-0.53c0.07-1.72,0.13-3.43,0.19-5.15c0.15-4.08,0.3-8.31,0.56-12.46
			c0.15-2.26,0.49-4.48,0.82-6.63c0.11-0.71,0.22-1.41,0.32-2.12l-0.31-0.75l0.49-0.58l0.84-6.22l2.88,6.23
			c0.08,0.17,0.16,0.39,0.18,0.67c0.12,0.23,0.25,0.48,0.38,0.73c0.65,1.21,1.38,2.58,1.23,4.08
			C49.88,269.34,48.73,276.56,47.11,283.55z"/>
		<path class="st0" d="M790.26-123.89l5.68-4.05c1.11-0.79,2.56-1.11,4.44-0.99c2.15,0.15,4.28,0.15,6.07,0.13l0.1,4l-0.44,0.02
			c-3.19,0.12-6.28,0.3-8.88,0.46L790.26-123.89z"/>
		<path class="st0" d="M101.8,351.81l-0.76-2.42c-0.06-0.18-0.12-0.46-0.18-0.78c-0.06-0.33-0.15-0.77-0.26-1.01l1.52-0.65
			c1.23-0.73,2.44-1.44,3.63-2.14c3.19-1.86,6.2-3.63,9.13-5.61c0.75-0.51,1.83-1.99,2-2.6c-0.02-0.11-0.03-0.22-0.04-0.32
			l-0.02-0.13l3.97-0.49l0.02,0.15c0.01,0.1,0.02,0.21,0.04,0.32c0.36,2.28-2.23,5.37-3.73,6.38c-3.04,2.06-6.11,3.86-9.35,5.76
			c-1.25,0.73-2.51,1.47-3.8,2.24L101.8,351.81z M116.91,336.76C116.91,336.76,116.91,336.76,116.91,336.76
			C116.91,336.76,116.91,336.76,116.91,336.76z M116.9,336.54L116.9,336.54L116.9,336.54z"/>
		<path class="st0" d="M609.43,159.16l-6.61-0.66c-19.39-1.95-31.89-21.83-31.85-50.66c0.01-6.42,0.01-12.84,0-19.28l0-11.37
			l10.98,2.29l-0.25,1.85c-0.41,3.05-0.92,6.19-1.41,9.22c-1.13,6.96-2.31,14.16-2.45,21.28c-0.23,11.5,2.84,21.73,8.41,28.07
			c3.66,4.16,7.82,7.28,12.23,10.59c1.91,1.44,3.89,2.92,5.81,4.48L609.43,159.16z M586.64,146.01c1.72,1.92,3.66,3.58,5.83,4.92
			C590.49,149.4,588.52,147.78,586.64,146.01z M574.98,82.11l0,6.45c0,3.4,0,6.8,0,10.19c0.41-2.98,0.89-5.94,1.37-8.85
			c0.39-2.39,0.79-4.85,1.14-7.26L574.98,82.11z"/>
		<path class="st0" d="M592.05,94.02l-3.08-2.53c2.11-3.03,4.02-6.74,5.86-10.33c5.35-10.4,11.41-22.19,24.53-19.93l3.73,0.64
			L592.05,94.02z M614.4,65.11c-6.6,1.06-10.65,7.62-14.56,15.08L614.4,65.11z"/>
		<rect x="544.93" y="-94.36" class="st0" width="4" height="39.45"/>
		<path class="st0" d="M1795.94-136.47l-3.14-5.83l10.35-22.32l-2.87,15.55c-0.15,0.83-0.24,1.65-0.25,2.43l-0.02,0.81l-0.57,0.57
			c-0.54,0.54-1,1.06-1.4,1.61l0,0c-0.41,0.56-0.71,1.24-0.9,2.02L1795.94-136.47z"/>
		<path class="st0" d="M1895.37-67.4l-4-0.11v-17.72l4.19,0.43l-0.04,2c-0.05,0.5-0.11,1.15-0.1,1.74c0.02,1.14,0.14,2.29,0.27,3.5
			c0.16,1.47,0.32,2.98,0.3,4.56l0,0c-0.02,1.19-0.18,2.26-0.34,3.3C1895.53-68.91,1895.41-68.16,1895.37-67.4z"/>
		<path class="st0" d="M581.47,79.58l-2.48-2.12c-0.52-0.45-1.05-0.86-1.58-1.27c-1.46-1.15-2.97-2.33-4.2-4.04
			c-1.25-1.74,0.39-6.14,0.41-6.18c0.2-0.52,0.67-1.75,1.95-2.03c1.77-0.39,3.45-0.03,5.23,0.34c0.64,0.13,1.31,0.28,2.03,0.39
			l2.14,0.33L581.47,79.58z M576.74,70.17c0.66,0.83,1.45,1.52,2.34,2.23l1.01-4.2c-0.04-0.01-0.08-0.02-0.11-0.02
			c-1.07-0.22-1.97-0.41-2.75-0.42C577,68.48,576.78,69.57,576.74,70.17z"/>
	</g>
</g>
</svg>
