<?xml version="1.0" encoding="utf-8"?>
<!-- Generator: Adobe Illustrator 23.0.1, SVG Export Plug-In . SVG Version: 6.00 Build 0)  -->
<svg version="1.1" id="Layer_1" xmlns="http://www.w3.org/2000/svg" xmlns:xlink="http://www.w3.org/1999/xlink" x="0px" y="0px"
	 viewBox="0 0 1920 1080" style="enable-background:new 0 0 1920 1080;" xml:space="preserve">
<style type="text/css">
	.st0{fill:#FFFFFF;}
</style>
<g>
	<path class="st0" d="M1298.59,863.72c0.07,0.03,0.15,0.05,0.22,0.07c0.03-0.14,0.06-0.27,0.08-0.41c0.31,0.27,0.64,0.51,0.96,0.75
		c0.35,0.12,0.7,0.23,1.05,0.35C1293.59,858.84,1293.31,861.85,1298.59,863.72z"/>
	<path class="st0" d="M1916.55,457.39c-3.05-5.12-7.75-7.08-13.16-7.98c-29.89-4.93-59.87-4.49-89.87-2.41
		c-29.43,2.04-58.91,3.19-88.26,6.45c-19.77,2.19-39.68,3.67-56.4,22.83c-14.71,16.86-32.55,25.23-53.07,22.1
		c-39.2-5.97-78.49-10.86-117.76-15.91c-14.48-1.86-14.57-1.48-16.86-20.49c-1.35-11.18-4.87-18.29-14.69-17.6
		c-9.4,0.66-19.02-1.47-28.24,0.32c-14.03,2.73-20.8-7.76-26.5-21.46c-1.47-3.54-2.15-7.65-3.84-13.94
		c-14.61,0-29.55,0.1-44.49-0.03c-12.65-0.11-25.31-0.52-37.96-0.74c-10.62-0.18-21.25-0.17-31.87-0.5
		c-1.74-0.05-4.56-0.87-5.01-2.34c-5.3-17.39-14.22,0.25-20.99-3.43c-0.31-0.17-3.29,8.14-4.97,12.53
		c-0.46,1.19-0.72,2.51-1.24,4.38c-6.12-11.96-11.72-22.54-23.24-23.4c-5.59-0.42-8.37-4.67-6.43-12.74
		c1.9-7.88,3.83-15.81,4.93-23.91c0.56-4.14-0.69-8.71-1.12-13.08c-1.04,0.03-2.08,0.06-3.13,0.09c-4.3,12.8-8.6,25.6-12.91,38.4
		c-1.02-0.32-2.04-0.63-3.06-0.95c-0.67-10.96-0.66-22.09-2.15-32.85c-3.72-26.9-8.41-53.57-12.17-80.45
		c-6.06-43.29-18.97-83.21-35.07-121.18c-23.66-55.78-53.78-104.89-91.73-145.05c-2.57-2.72-6.68-4.06-10.07-4.05
		c-13.53,0.02-22.82,8.79-31.12,23.23c-20.3,35.28-42.07,69.08-63.03,103.71c-8.48,14.02-7.87,14.46,1.91,27.3
		c14.66,19.24,29.66,38.2,43.06,58.93c20.06,31.04,32.52,67.58,38.74,107.54c3.29,21.11,5.23,42.58,8.44,63.72
		c1.45,9.53-0.05,14.41-7.76,14.81c-13.35,0.7-26.85,0.23-40,2.79c-10.65,2.07-19.14-0.17-26.62-10.2
		c-5.24-7.02-9.99-7.27-14.72,1.48c-3.83,7.09-8.21,12.23-16.1,12.61c-16.1,0.77-32.13,3.81-48.19,5.81
		c-8.43,1.05-16.98,1.08-25.28,3.05c-9.05,2.15-17.86,6.01-26.77,9.12l0.65,4.38c25.46-1.72,50.92-3.44,76.37-5.15
		c0.31,1.44,0.61,2.89,0.92,4.33c-5.17,2.24-10.33,6.39-15.51,6.44c-48.42,0.5-96.85,0.24-145.28,0.35
		c-8.13,0.02-10.22-4.6-10.32-15.33c-0.26-27.22,10.43-44.3,27.83-57.61c1.13,3.41,1.81,7.12,3.42,9.89
		c2.19,3.78,5.55,10.07,7.58,9.56c4.21-1.05,9.76-4.71,11.43-9.38c6.55-18.33,16.82-27.33,32.8-28.19
		c27.74-1.48,54.58-7.69,79.79-24.82c9.11-6.19,19.98-9.1,30.29-10.64c9.6-1.43,13.9-5.82,11.4-18.63
		c-2.27-11.62-5.37-22.98-8.39-34.32c-3.1-11.61-6.64-11.97-14.73-6.55c-8.12,5.43-17.21,8.48-26.04,11.87
		c-3.85,1.48-8.09,1.14-12.15,1.76c-28.17,4.33-54.09,17.66-78.9,35.06c-7.85,5.5-14.92,4.58-22.27-0.78
		c-2.17-1.58-4.57-2.62-6.86-3.91c0.02,0.07,0.05,0.14,0.07,0.21c-4.46-1.09-9.2-3.76-13.23-2.47c-2.11,0.67-3.04,8.42-4.28,13.07
		c-1.36,5.12-1.29,11.95-3.87,15.29c-25.29,32.78-51.01,64.96-76.56,97.39c-1.46,1.86-3.56,4.42-3.49,6.54
		c0.41,11.57-4.78,12.19-11.49,12.01c-85.61-2.32-171.29,4.06-256.9-3.85c-18.46-1.7-37.24,3.81-55.88,3.93
		c-77.67,0.5-155.35,0.05-233.02,0.44c-9.04,0.05-11.55-5-11.39-15.51c0.24-15.72,0.44-31.46,0.04-47.16
		c-0.09-3.69-2.3-9.94-4.19-10.41c-6.67-1.66-13.64-1.84-20.46-1.39c-1.81,0.12-4.7,4.24-4.99,6.92c-1.8,16.67-3.11,33.43-4.35,50.2
		c-0.39,5.22-0.06,10.53-0.06,16.93c-32.6-4.31-63.9-8.44-95.78-12.65v72.85c2.92,0,5.36,0.31,7.74-0.05
		c15.4-2.31,30.74-5.62,46.18-6.95c18.43-1.59,36.58-5.75,55.52-2.1c14.77,2.84,30.36-2.84,45.59-2.93
		c67.92-0.41,135.85-0.18,203.77-0.18c28.95,0,28.67,0.01,29.57,38.28c0.62,26.33,17,43.13,34.25,40.04
		c2.11-0.38,4.26-0.47,7.28-0.79c0.14,4.22,0.56,7.84,0.34,11.39c-2.68,42.92-5.36,85.85-8.23,128.75
		c-4.81,71.81-10.06,143.57-14.41,215.42c-0.89,14.67-4.49,26.88-10.02,39.14c-1.94,4.3-2.55,12.68-0.65,16.4
		c5.55,10.86,5.47,22.09,4.58,34.01c-0.49,6.47-0.54,13-0.82,20.16c-2.16-0.18-4.04-0.85-5.73-0.37c-2.69,0.76-6.77,1.44-7.51,3.7
		c-0.95,2.94-0.16,9.39,1.57,10.88c8.23,7.07,7.89,17.22,8.27,28.21c0.12,3.44,2.59,8.54,5.02,10.98c-0.45-11.45-0.85-21.73-1.25-32
		l4.16-1.98c2.08,3.99,5.74,7.89,5.89,12.01c0.29,7.7,2.18,17.7-8.78,22.01c0.76,0.76,1.52,1.26,2.2,1.36
		c3.12,0.44,7.91-4.82,9.89-9.22c1.99-4.44,1.42-10.88,2.14-18.09c7.43,1.73,14.42,4.48,21.43,4.61c1.05,0.02,2.29-0.09,3.58-0.29
		c0.1-0.48,0.18-0.95,0.28-1.42c0.95-4.36,2.16-8.52,3.57-12.51c-1.82-0.29-3.66-0.57-5.07-1.52c-0.27-0.18-0.61-0.19-0.91-0.3
		c-19.44-6.79-19.49-6.8-17.19-32.85c0.65-7.37,1.69-14.67,2.43-20.96c7.47-3.68,15.32-5.12,20.53-10.79
		c5.28-5.74,10.11-15.19,11.21-23.88c1.32-10.38-7.64-11.78-13.41-13.67c-6.36-2.08-6.85-6.15-5.75-13.56
		c2.1-14.23,3.45-28.65,5.06-43c9.37-83.61,18.71-167.23,28.07-250.84c2.47-22.02,4.95-44.04,7.53-66.98
		c8.83,0,16.65,0.05,24.47-0.03c2.17-0.02,4.59,0.29,6.46-0.82c12.91-7.63,12.63-7.64,16.43,10.5c0.85,4.06,4.15,7.23,6.33,10.81
		c1.76-3.56,3.62-7.05,5.25-10.72c0.61-1.38,1.05-3.19,0.97-4.75c-0.43-8.72,2.93-10.01,8.78-9.63c26.23,1.7,52.47,3.02,78.71,3.96
		c6.78,0.24,10.78,1.28,9.63,12.51c-0.69,6.72,0.8,14.05,2.06,20.87c3.67,19.85,20.19,26.71,32.55,14.08
		c3.38-3.45,7.23-7.52,11.19-8.29c14.28-2.74,28.7-5.76,43.07-5.86c75.78-0.56,151.57-0.26,227.35-0.26h11.9
		c0,10.03-0.14,18.63,0.03,27.22c0.23,11.44,5.88,19.62,13.61,20.14c9.19,0.62,14.52-5.26,15.7-17.88
		c0.88-9.39,1.37-18.85,2.06-28.6c2.13-0.32,3.97-0.83,5.81-0.83c66.98-0.04,133.96-0.08,200.94,0.01
		c9.5,0.01,15.05,7.19,16.37,20.67c0.81,8.22,1.15,16.52,1.8,24.77c1.85,23.39,9.29,35.99,26.74,37.77
		c14.13,1.45,28.57-1.79,42.83-3.59c11.11-1.4,14.92,1.66,15.39,15.78c1.2,35.97,2.57,71.96,2.77,107.95
		c0.07,12.54,3.66,16,12.06,16.01c18.45,0.03,36.9,0.47,55.36,0.8c11.83,0.21,22.17-14.33,19.51-29.64
		c-5.75-33.08-12.53-65.85-18.68-98.8c-2.38-12.74-6.34-25.66-0.92-38.67c5.14-12.34,10.81-24.31,15.86-36.71
		c3.65-8.96,9.38-11.25,16.43-11.39c19.69-0.39,39.39-0.66,59.06-1.78c9.56-0.54,19.06-4.17,28.58-4.07
		c13.4,0.14,26.85,1.85,40.18,3.95c52.76,8.32,103.03,28.11,150.9,58.49c4.59,2.91,8.39,6.32,6.63,15.28
		c-3.07,15.64,1.23,28.05,10.47,33.65c8.72,5.29,17.44,0.97,25.62-10.97c2.57-3.75,7.24-7.15,10.91-7.08
		c27.32,0.53,53.79,7.35,79.48,19.98c14.4,7.08,29.14,13.13,43.93,18.65c0.54,0.2,1.02,0.32,1.54,0.49
		c5.08-3.11,10.49-5.22,16.02-6.14c0.7-4.84,1.53-9.34,2.57-13.82c0.94-14.38,1.63-28.8,2.3-43.21
		c2.03-43.73,4.26-87.46,5.86-131.22c0.74-20.06,4.91-36.55,19.64-45.88c6.12-3.88,9.92-9.5,9.53-18.25
		C1918.71,465.94,1917.56,461.68,1916.55,457.39z M94.49,476.38c-29.6,3.96-58.52,7.82-88.04,11.77v-59.78
		c29.4,3.94,58.34,7.82,88.04,11.8V476.38z M99.9,411.15c1.08-13.31,1.83-26.69,3.38-39.9c0.28-2.36,3.6-5.26,5.82-5.8
		c3.59-0.88,7.63-0.95,11.07,0.43c2.3,0.92,5.32,4.76,5.54,7.62c0.7,9.38,0.26,18.9,0.26,29.44c-12.69-6.09-16.8-2.33-18.11,15.42
		C102.8,420.65,99.15,420.38,99.9,411.15z M127.61,472.79c-0.2,3.16-4.21,5.92-6.5,8.81c-0.16,0.2-0.61,0.03-0.92-0.03
		c-6.67-1.29-18.49-0.88-19.12-4.19c-2.64-13.85-1.92-28.82-2.42-43.09h29.28C127.92,448.08,128.37,460.5,127.61,472.79z
		 M384.05,475.9c-3.14,0.24-5.87,0.63-8.6,0.64c-77.56,0.03-155.11-0.21-232.67,0.33c-9.2,0.06-11.68-4.62-11.33-15.08
		c0.14-4.14,0.42-8.3,0.26-12.43c-0.29-7.69,2.52-9.88,8.01-9.87c79.75,0.14,159.51,0.08,239.26,0.1c1.5,0,3,0.5,5.07,0.88V475.9z
		 M1480.05,564.67c0.1,9.21-2.7,13.13-9.39,12.48c-6.15-0.59-12.29-1.46-17.97-2.15v-83.27c6.51,0,11.45-0.25,16.37,0.05
		c11.71,0.71,11.98,1.64,11.54,17.63C1480.1,527.82,1479.84,546.26,1480.05,564.67z M1445.27,450.34c8.55,0,16.04-0.54,23.43,0.32
		c2.35,0.27,5.68,3.74,6.44,6.69c2.27,8.9,3.48,18.28,5.41,29.16c-7.91,0-14.4,0.57-20.81-0.16c-6.73-0.77-9.87,1.95-9.96,11.38
		c-0.13,14.02-0.93,28.02-1.51,43.66h-12.46c-133.62,0-267.23,0.01-400.85-0.04c-6.47,0-13.91,3.06-16.9-9.29
		c-0.5-2.07-4.21-2.78-7.11-4.52c0.43-4.69,0.76-8.29,1.17-12.71h433.15V450.34z M1306.71,558.43c-0.55-2.91-1.17-6.16-2.06-10.83
		h143.41v10.83H1306.71z M1315.19,586.02c-7.45-5.54-12.95-9.63-18.45-13.72c0.44-1.47,0.87-2.93,1.31-4.4
		c4.8,0.32,9.6,0.65,14.91,1.01C1313.55,573.41,1314.1,577.67,1315.19,586.02z M1282.37,572.03c3.27-1.17,6.95-0.34,12.74-0.34
		c-4.28,7.89-6.85,12.63-10.72,19.76c-2.51-4.96-5.01-8.32-5.85-12.29C1278.16,577.28,1280.63,572.66,1282.37,572.03z
		 M1261.98,581.93c0.19-5.64,0.31-9.21,0.46-13.65h16.58C1272.38,573.6,1267.77,577.29,1261.98,581.93z M1284.65,413.67
		c36.7,1.02,73.47-4.6,110.06,5.07h-110.11C1284.61,417.06,1284.63,415.37,1284.65,413.67z M1221.27,407.21
		c2.53-1.41,5.88-1.26,8.71-0.52c6.32,1.66,12.62,3.69,18.73,6.38c2.37,1.04,4.2,4.26,6.27,6.48c-2.19,1.46-4.28,3.69-6.58,4.18
		c-3.37,0.72-6.89,0.18-10.34,0.18c0-0.09,0-0.18,0-0.28c-3.77,0-7.77,1.04-11.23-0.32c-2.85-1.12-5.66-4.57-7.32-7.98
		C1218.7,413.66,1219.95,407.95,1221.27,407.21z M1080.13,16.21c38.85,44.71,69.71,97.51,92.37,158.59
		c13.14,35.42,23.15,72.33,28.25,111.34c3.58,27.38,7.02,54.8,10.44,82.22c0.54,4.32,0.59,8.74,0.9,13.66
		c-6.31,0.99-10.63,1.66-16.46,2.57c-3.38-154.49-57-274.87-143.8-372.6C1064.27,0.76,1067.45,1.62,1080.13,16.21z M1174.9,258.41
		c-25.03-97.45-71.22-175.35-128.68-242.92C1106.68,80.3,1152.52,158.61,1174.9,258.41z M1042.09,19.48
		c13.86,17.45,27.73,33.38,40.27,50.98c31.34,44,57.77,92.68,75.79,148.54c15.99,49.55,24.52,101.57,27.33,155.25
		c0.35,6.58-1.25,11.23-6.96,11.87c-18.75,2.1-37.49,4.58-56.26,6.11c-1.74,0.14-5.26-5.3-5.41-8.37
		c-3.38-68.43-15.85-133.07-44.77-190.99c-17.02-34.09-37.8-63.75-61.22-90.27c-3.55-4.02-6.89-8.37-11.36-13.81
		C1013.74,65.61,1027.32,43.52,1042.09,19.48z M1002.46,99.36c11.59,13.89,23.01,28.07,33.92,42.88
		c25.92,35.18,46.25,75.63,58.26,122c8.36,32.27,13.2,66.14,19.62,99.3c-1.07,0.33-2.14,0.66-3.21,1c0.63,6.13,1.17,12.29,1.93,18.4
		c0.84,6.82-1.45,11.12-6.38,10.33c-1.79-0.29-4.22-5.81-4.44-9.17c-3.22-48.18-10.05-95.09-25.88-139.2
		c-18.31-51.01-44.82-93.53-76.57-130.74c-1.41-1.65-3.43-3-4.06-5.08c-1.07-3.54-1.26-7.55-1.83-11.36
		C996.75,98.2,1000.67,97.22,1002.46,99.36z M1037.71,245.65c-14.47-35.48-34.84-64.81-57.96-90.66
		c-12.09-13.52-12.68-12.95-3.09-28.99c3.47-5.81,7.47-11.06,11.76-17.34c68.52,74.54,107.26,167.45,109.55,285.92
		c-8.48,0.98-16.81,2.63-25.11,2.4c-1.97-0.05-5.38-6.28-5.54-9.88C1065.04,337.12,1055.68,289.73,1037.71,245.65z M1102.49,399.24
		c21.2-2.39,42.43-4.39,63.66-6.35c14.08-1.3,28.18-2.11,42.26-3.39c6.13-0.56,7.18,5.21,6.44,10.38c-0.5,3.5-3.98,8.91-6.15,8.93
		c-54.08,0.43-108.16,0.25-162.23,0.11c-0.35,0-0.7-1.05-1.51-2.34C1064.4,404.08,1083.43,401.39,1102.49,399.24z M970.49,406.38
		c3.79-4.84,7.63-9.6,11.97-15.02c4.18,4.87,8.49,9.89,14.16,16.5c-10.2,1.25-18.63,2.27-28.71,3.51
		C969.48,408.29,969.87,407.17,970.49,406.38z M937.9,435.04c0.25-2.79,4.57-6.88,6.97-6.82c2.33,0.06,5.92,4.21,6.58,7.42
		c1.1,5.38,0.3,11.44,0.3,17.21c-0.24,0-0.48,0-0.72,0c0,4.13,0.7,8.56-0.21,12.31c-0.81,3.37-3.03,7.8-5.25,8.56
		c-4.03,1.37-8.32-0.04-8.27-7.78C937.38,455.62,936.98,445.23,937.9,435.04z M927.13,438.39c0.97-0.31,1.94-0.63,2.91-0.94
		c6.93,7.11,2.17,18.19,3.21,27.16c0.38,3.29-2.4,7.22-3.74,10.86c-0.79-0.48-1.59-0.96-2.38-1.43V438.39z M929.24,484.4
		c2.79-5.26,13.91-3.79,21.16-3.5c3.41,0.14,6.71,4.81,11.11,8.25c-0.39-0.89,0.15-0.21,0.19,0.51c1.45,31.55,1.45,31.5-22.02,30.95
		c-13.37-0.31-26.74-0.23-40.1-0.81c-2.4-0.1-4.75-2.57-7.12-3.95c0.26-1.16,0.51-2.33,0.77-3.49
		C908.11,509.35,920.1,501.63,929.24,484.4z M767.08,440.52H920.3c0,15.67,0.26,30.9-0.1,46.1c-0.2,8.62-5.63,7.37-9.93,7.37
		c-37.42,0.01-74.83-0.05-112.25-0.08c-9.99-0.01-19.98,0-30.94,0V440.52z M901.23,501.7c0.11,1.16,0.21,2.31,0.32,3.47H766.26
		c0-1.16,0-2.31-0.01-3.47H901.23z M887.9,518.22c0,2.05-0.01,4.1-0.01,6.15c-40.03,0.59-80.05,0.01-120.08-1.05
		c-0.05-2.37-0.09-4.74-0.14-7.11C807.75,516.11,847.82,517.49,887.9,518.22z M885.95,530.11c0.25,1.55,0.5,3.11,0.75,4.66
		c-3.71,1.39-7.43,4.03-11.13,3.98c-46.88-0.67-93.76-1.71-140.64-2.76c-1.99-0.04-3.98-1.16-5.96-1.78c0.13-1.37,0.26-2.73,0.4-4.1
		H885.95z M742.05,543.59c-0.43,6.69-0.76,11.8-1.15,17.83c-5.61-2.01-12.8,1.55-12.39-9.76
		C728.91,540.73,735.4,543.81,742.05,543.59z M799.9,292.48c3.97,13.78,20.22,17.1,30.92,9.27c23.26-17.01,47.91-28.72,74.1-34.73
		c3.08-0.71,6.22-1.45,9.32-1.4c13.47,0.22,26.2-2.8,38.36-16.17c3.99,16.9,7.69,32.05,10.91,47.37c0.23,1.09-3.29,5.29-4.63,4.97
		c-12.78-3.14-23.52,4.37-33.86,11.81c-19.2,13.83-40.09,18.59-61.22,22.63c-9.01,1.72-18.04,3.23-27.07,4.69
		c-12.74,2.07-21.77,9.99-25.11,27.2c-0.3,1.56-1.03,2.98-1.62,4.42c-0.11,0.27-0.54,0.31-3.37,1.8
		c-5.53-26.5-10.99-52.64-16.72-80.1C794.63,293.41,797.28,292.94,799.9,292.48z M787.3,299.64c1.9,11.04,3.8,22.08,5.69,33.12
		c-0.97,0.14-1.94,0.28-2.91,0.42l-4.56-33.03C786.11,299.97,786.71,299.81,787.3,299.64z M784.32,320.57
		c2.19,10.75,4.39,21.49,6.58,32.24c-1.1,0.37-2.2,0.74-3.3,1.11c-2.32-10.71-4.63-21.42-6.95-32.13
		C781.87,321.38,783.1,320.98,784.32,320.57z M748.61,364.2c8.8-11.99,18.32-23.06,27.66-34.59c10.11,18.11,8.93,31.54-2.61,43.16
		c-2.65,2.67-4.38,6.98-7.07,9.56c-3.17,3.03-7.46,7.74-10.29,6.77c-4.15-1.42-8.54-6.43-10.67-11.49
		C744.39,374.65,746.33,367.3,748.61,364.2z M736.64,379.28c8.6,7.26,16.15,13.62,25.1,21.17c1.13,15.74,0.79,16.26-13.07,16.26
		c-12.7,0-25.4,0-38.02,0C720.04,403.2,728.94,390.37,736.64,379.28z M702.87,423.14h59.95c0,24.48,0.15,47.77-0.28,71.05
		c-0.03,1.84-4.08,5.05-6.29,5.09c-16.3,0.3-32.6,0.09-48.9-0.39c-1.52-0.05-4.27-3.1-4.29-4.8
		C702.78,470.64,702.87,447.19,702.87,423.14z M701.27,504.48c-50.61,4.41-101.63-4.83-152.38-9.12c42.63,0,85.26,0.17,127.89-0.13
		C686.27,495.17,695.27,495.58,701.27,504.48z M388.96,476.35c0.08-12.35,0.02-24.71,0.02-37.97h57.54
		c0,14.24,0.35,27.83-0.28,41.34c-0.13,2.88-3.81,7.76-5.92,7.82c-14.26,0.44-28.53-0.46-42.8-0.29
		C391.41,487.33,388.91,484.11,388.96,476.35z M416.84,509.79c3.66,6.17,7.39,9.81,7.66,13.85c0.18,2.72-4.54,8.3-7.1,8.33
		c-2.25,0.03-5.85-5.54-6.4-9.27C410.58,519.78,413.91,515.9,416.84,509.79z M411.61,505.56c2.03-3.28,3.74-7.18,6.28-9.45
		c0.72-0.65,3.87,3.46,5.91,5.38l-8.12,9.36C414.33,509.09,412.97,507.32,411.61,505.56z M393.53,511.33
		c0.26-7.85,0.43-12.95,0.63-18.97c4.22,0.33,7.45,0.59,11.67,0.92C401.77,499.25,398.5,504.04,393.53,511.33z M418.04,551.37
		c-2.53-3.29-5.06-6.58-7.59-9.87c0.88-1.2,1.75-2.39,2.63-3.59c2.96,0.37,5.92,0.74,11.96,1.49
		C421.9,544.76,419.97,548.07,418.04,551.37z M430.03,530.65c-1.82-13.69-1.5-14.13,9.02-12.16
		C440.39,528.29,436.88,531.42,430.03,530.65z M428.15,977.88c-1.76-13.18,6.34-19.3,20.87-15.37
		C444.62,975.97,436.27,976.38,428.15,977.88z M440.77,944.22c3.47,1.12,6.72,3.39,10.06,5.19c-0.15,1.23-0.31,2.46-0.46,3.69
		c-3.79-0.41-7.66-0.38-11.33-1.47c-1.39-0.41-2.35-3.42-3.5-5.25C437.3,945.6,439.25,943.73,440.77,944.22z M452,715.41
		c-9.33,81.46-18.63,162.92-28.01,244.37c-2.36,20.46-4.71,40.94-7.69,61.25c-0.5,3.41-4.22,5.99-6.45,8.95
		c-1.53-3.7-4.57-7.57-4.36-11.09c3.59-60.56,7.57-121.08,11.47-181.6c4.35-67.55,8.69-135.1,13.07-202.64
		c0.13-2.06,0.55-4.08,0.54-4c10.38,2.72,19.9,5.23,30.27,7.95C458.06,662.66,455.02,689.03,452,715.41z M447.82,630.79
		c-8.54-0.71-14.43-6.74-15.69-16.97c10.1,2.72,20.03,5.4,30.56,8.24C460.37,631.55,453.61,631.27,447.82,630.79z M447.19,592.89
		c-1.97,5.14-3.95,10.29-6.03,15.71C435.63,601.06,436.53,597.88,447.19,592.89z M506.47,557.96h-31.26
		c0.71-8.67,1.39-17.1,2.08-25.52c-0.94-0.25-1.89-0.51-2.83-0.76c-2.89,20.24-5.78,40.49-8.72,61.15
		c-12.58-11.13-21.06-11.24-33.58,2.39c3.78-19.65-0.95-37.96,9.9-53.22c7.46-10.49,4.95-24.96,5.52-38.05
		c0.16-3.71,1.56-7.33,2.4-10.99c2.26,2.26,4.51,4.51,5.76,5.76c3.57-1.33,5.96-3.1,8.25-2.89c5.53,0.51,11.01,1.96,17.86,3.28
		c0.35-0.76,1.71-3.75,3.07-6.74c0.02,1.26,0.04,2.51,0.06,3.77c6.89,1.77,13.79,3.55,21.51,5.53V557.96z M503.28,492.77
		c4.85-0.07,9.7-0.18,14.52,0.23c2.07,0.18,4.17,2.31,5.94,4.09c0.32,0.33-0.71,4.66-1.42,4.82c-2.57,0.57-5.68,1.28-7.83-0.11
		C510.57,499.28,506.94,495.98,503.28,492.77z M523.51,538.53v13.23c-9.28,3.37-13.02,0.02-11.26-13.2
		c0.96-7.16-0.53-14.85,0.05-22.17c0.24-3,2.98-7.84,4.68-7.92c2.55-0.11,5.19,3.23,7.43,4.85c-4.94,5.44-8.15,8.97-11.35,12.51
		C516.14,529.56,519.22,533.31,523.51,538.53z M532.2,576.59c-0.9-0.01-1.79-0.01-2.69-0.01V468.47c0.9-0.04,1.79-0.07,2.69-0.11
		V576.59z M523.16,485.8h-71.75v-45.11h245.71v45.21H538.3v-22.38C525.86,461.45,525.86,461.45,523.16,485.8z M548.52,544.82
		c-0.22,9.22-2.68,11.89-10.11,9.82v-52.31C551.14,512.84,548.89,528.92,548.52,544.82z M579.63,532.51
		c-0.29,6.61-0.42,13.22-0.72,19.83c-0.05,1.13-0.65,2.22-0.98,3.29H552.9v-53.15c19.13,2.03,37.57,3.94,56.01,5.97
		c3.73,0.41,7.44,1.84,11.16,1.86c44.15,0.27,88.29,0.33,132.44,0.57c3.79,0.02,7.58,1,11.37,1.53l0.03,3.94
		c-4.5,0.67-9.01,1.95-13.51,1.91c-52.52-0.52-105.04-1.25-157.55-1.91C581.17,516.2,580.31,517.24,579.63,532.51z M584.29,558.37
		v-36.12c9.99,0,19.96-0.58,29.82,0.54c1.76,0.2,3,7.5,4.58,11.46c1.07,2.69,2.3,5.26,3.46,7.88c1.24-2.25,2.97-4.28,3.6-6.79
		c0.82-3.28,0.77-6.94,1.07-10.17c6.48,3.43-4.72,17.67,7.41,16.56c1.14-6.42,2.22-12.45,3.56-20.01
		c2.14,8.26,2.64,16.02,5.82,20.34c1.94,2.64,9.34,2.05,11.84-0.82c2.66-3.06,2.42-10.51,5-15.94c0.12,3.08-0.17,6.32,0.47,9.2
		c0.67,3.01,2.24,5.67,3.42,8.49c1.27-2.38,3.1-4.55,3.66-7.19c0.82-3.85,0.74-8.05,1.1-12.98h54.99v35.55H584.29z M961.64,591.27
		c-3.63,0-6.98,0-10.33,0c-73.51,0-147.02,0.11-220.53-0.11c-12.15-0.04-24.31-1.37-36.45-2.47c-1.84-0.17-5.03-2.16-5.12-3.6
		c-0.79-11.71-6.75-11.27-13.04-10.55c-7.51,0.86-15.27,0.44-22.41,3.04c-3.5,1.27-8.42,8.43-8.13,12.34
		c0.47,6.34,3.8,13.79,7.7,17.6c1.93,1.89,8.17-2.52,11.77-5.53c2.01-1.69,2.61-6.33,4.75-12.09c3.54,12.86-2,17.69-7.21,21.72
		c-5.38,4.16-16.98-0.3-18.83-7.98c-2.85-11.85-4.03-24.41-6.1-37.91h323.95V591.27z M950.79,558.8
		c-32.37,0.11-64.73,0.05-97.1,0.05c-32.68,0-65.36,0.15-98.04-0.25c-3.18-0.04-8.46-2.63-9.1-5.47c-1.97-8.78,2.72-11.2,8.63-11.09
		c38.41,0.72,76.82,1.81,115.22,1.6c7.2-0.04,14.37-5.42,21.58-8.24c2.68-1.05,5.42-2.62,8.13-2.58c16.9,0.25,33.79,1.07,50.68,1.32
		c7.2,0.11,11.9,0.17,11.61,13.8C962.12,561.69,956.33,558.78,950.79,558.8z M989.17,623.03c-0.26,8.49-3.8,16.64-11.65,16.32
		c-8.22-0.34-9.89-9.03-9.99-17.72c-0.25-20.88-0.08-41.77-0.08-63.11h21.95C989.4,579.55,989.85,601.32,989.17,623.03z
		 M990.52,543.23c-6.7,0-12.92,0.8-18.9-0.42c-2.19-0.45-5.34-5.57-5.45-8.73c-0.57-15.28-0.26-30.61-0.26-46.79h24.61V543.23z
		 M994.08,481.29c-9.81,0-19.11,0.17-28.4-0.1c-2.7-0.08-5.38-1.39-8.33-2.22c0-14.81-0.28-29.12,0.24-43.37
		c0.1-2.82,3.2-7.66,5.08-7.8c10.2-0.77,20.46-0.37,31.41-0.37V481.29z M999.13,484.58c0.97-1.17,0.34-4.73,0.34-7.19
		c0.02-20.24,0.01-40.48,0.01-61.46c4.09-0.38,6.81-0.86,9.53-0.86c65.39-0.04,130.78-0.16,196.16,0.27
		c4.01,0.03,8.01,4.37,12.02,6.68c4.65,2.68,9.3,7.59,13.97,7.64c51.55,0.55,103.11,0.36,154.67,0.33
		c7.42-0.01,14.85-0.37,22.27-0.3c0.97,0.01,2.37,1.27,2.85,2.46c6.19,15.31,15.51,21.93,29.76,16.77v59.31h-430.99
		c-4.51,13.87-4.51,13.87-15.28,11.53C996.72,508.23,990.27,495.26,999.13,484.58z M995.52,535.39c8.48,1.4,18.6-6.22,24.18,9.97
		c0.73,2.13,6.39,1.76,9.76,1.76c80.45,0.09,160.89,0.07,241.34,0.07c5.31,0,11.4-1.14,8.39,12.95c-5.53-2.2-10.76-4.29-15.82-6.3
		c-3.63,1.53-7.75,4.78-11.88,4.79c-80.44,0.25-160.89,0.14-241.33,0.05C991.16,558.66,994.19,560.37,995.52,535.39z M998.13,591.15
		c-0.88,0-1.77-0.53-3.54-1.1v-24.67h263.32v16.85c-4.24,0-8.3-0.86-12.05,0.22c-4.75,1.36-9.24,4.35-13.87,6.53
		c-1.91,0.9-3.89,2.19-5.84,2.2C1150.15,591.25,1074.14,591.21,998.13,591.15z M1217.63,600.22h13.72l0.95,2.6
		c-3.07,3.25-6.15,6.5-10.28,10.86C1220.33,608.47,1219.2,605.01,1217.63,600.22z M1278.95,668.48
		c-10.07,8.35-35.35,7.99-43.87-2.77c-4.42-5.58-8.04-15.24-8.13-23.13c-0.13-11.78,6.19-23.36,14.97-23.43
		c6.07-0.04,13.46,8.47,17.93,15.67c4.59,7.41,3.48,17.33-2.79,24.29c-2.56,2.85-5.47,5.16-8.22,7.71c0.46,1.21,0.91,2.41,1.37,3.62
		c7.39,0.23,12.4-6.28,16.3-13.81c6.64-12.82,2.57-24.31-4.15-34.83c9.16-5.49,19.48,0.19,24.63,13.16
		C1291.32,645.87,1287.62,661.29,1278.95,668.48z M1372.84,644.48c-2.76,9.11-5.27,20.28-3.79,29.37
		c5.65,34.82,12.79,69.22,19.69,103.67c4.69,23.44-2.82,35.96-21.24,35.08c-14.73-0.7-29.47-1.26-44.21-1.11
		c-8.19,0.08-12.24-2.26-12.37-15.01c-0.35-34.29-1.53-68.6-3.36-102.81c-0.42-7.84-4.78-15.32-7.38-22.94
		c-0.37-1.08-1.25-1.89-1.53-2.99c-2.15-8.6,8.08-41.54,14.31-46.06c10.49-7.6,20.95-14.1,33.7-12.83
		c12.92,1.29,25.98,0.29,41.24,0.29C1381.88,622.92,1376.28,633.13,1372.84,644.48z M1439.54,592.69
		c-12.57,2.82-25.44,3.32-38.2,4.64c-1.54,0.16-3.44-0.92-4.61-0.07c-17.06,12.42-35.55,5.36-53.26,5.97
		c-14.9,0.51-26.94,8.58-37.85,19.06c-4.79,4.6-5.55,16.75-7.87,25.6c-2.65,10.09-1.94,23.23-14.55,24.46
		c10.28-12.73,12.32-27.2,5.79-43.25c-0.73-1.8-1.62-3.56-2.68-5.03c-13.34-18.48-50.5-14.6-61.54,6.35
		c-0.32,0.62-0.92,0.98-1.39,1.47c-0.72-0.25-1.43-0.5-2.15-0.75c0.99-4.31,1.1-11.32,3.11-12.46
		c10.26-5.81,12.48-16.79,11.98-30.43h17.5c0,1.89-0.73,5.14,0.17,6.95c1.38,2.76,3.71,5.53,6.01,6.26c1.08,0.35,4.61-4.5,4.32-6.2
		c-1.72-10.33,4.77-10.7,8.88-15.78c3.68,12.34,9.44,17.8,18.63,15.67c1.37-0.32,3.03,0.86,4.44,1.7
		c11.08,6.62,11.07,6.64,15.37-8.12c8.09,0,16.24,0.57,24.32-0.16c8.16-0.74,8.65-2.65,5.16-15.81c-0.61,2.46-0.68,4.03-1.3,4.99
		c-1.41,2.21-2.89,5.09-4.75,5.76c-0.97,0.35-4.08-3.6-3.94-5.26c0.27-3.13,1.74-7.9,3.52-8.65c5.81-2.45,11.97-4.62,18.02-4.72
		c27.97-0.47,55.96,0.38,83.92-0.53c9.56-0.31,12.51,7.51,12.85,15.99C1449.61,584.38,1443.47,591.8,1439.54,592.69z
		 M1448.48,596.77c6.48-11.38,14.54-12.87,39.85-7.49C1474.36,599.92,1461.34,592.48,1448.48,596.77z M1722.96,695.94
		c-4.75,8.51-12.37,10.95-18.24,6.09c-4.75-3.94-8.27-12.97-9.73-20.61c-1.26-6.6,1.15-14.42,2.09-23.11
		c12.22,5.1,24.37,10.18,37.19,15.53C1730.16,681.92,1726.77,689.13,1722.96,695.94z M1886.78,466.17
		c-3.49,65.61-6.72,131.25-10.05,196.88c-0.9,17.71-2.22,35.4-2.78,53.13c-0.29,9.33-3.27,10.28-9.07,7.77
		c-29.82-12.88-59.66-25.66-89.54-38.27c-37.64-15.88-75.27-31.81-113.02-47.24c-30.22-12.35-60.3-25.81-91.05-35.32
		c-22.15-6.85-45.28-8.21-68.01-11.63c-5.97-0.9-11.59-1.07-11.29-11.95c0.04-1.43-0.74-3.98-1.47-4.22
		c-9.01-2.89-6.63-12.14-6.53-20.02c0.12-9.49,0.56-18.98,0.63-28.47c0.05-7.06,0.03-12.6,5.89-17.62
		c3.22-2.77,2.63-13.3,3.97-21.61c37.5,4.98,74.02,8.8,110.3,15c26.13,4.46,49.31-1.49,69.37-24.48
		c13.22-15.15,29-18.13,45.63-18.82c20.29-0.84,40.54-3.17,60.83-3.67c33.13-0.81,66.27-0.7,99.41-0.86
		C1885.69,454.74,1887.17,458.84,1886.78,466.17z M1903.79,482.23c-3.78,4.1-8.19,7.16-14.28,12.32c0.59-12.58,0.63-23.1,1.99-33.3
		c0.23-1.73,6.62-3.98,9.31-2.74c4.57,2.11,8.47,6.79,12.65,10.4C1910.26,473.39,1907.36,478.35,1903.79,482.23z"/>
	<path class="st0" d="M1046.22,15.48c60.45,64.82,106.29,143.13,128.68,242.92C1149.87,160.95,1103.68,83.05,1046.22,15.48z"/>
	<path class="st0" d="M405.23,1044.6c2.08,3.99,5.74,7.89,5.89,12.01c0.29,7.71,2.19,17.73-8.81,22.02
		c-0.45-11.47-0.85-21.76-1.25-32.05C402.45,1045.92,403.84,1045.26,405.23,1044.6z"/>
	<path class="st0" d="M449.02,962.51c-4.41,13.46-12.76,13.87-20.87,15.37C426.39,964.71,434.49,958.58,449.02,962.51z"/>
	<path class="st0" d="M742.05,543.59c-0.43,6.69-0.76,11.8-1.15,17.83c-5.61-2.01-12.8,1.55-12.39-9.76
		C728.91,540.74,735.4,543.81,742.05,543.59z"/>
	<path class="st0" d="M410.44,541.5c0.88-1.2,1.75-2.39,2.63-3.59c2.96,0.37,5.92,0.74,11.96,1.49"/>
	<path class="st0" d="M415.69,510.85c-1.36-1.76-2.72-3.52-4.08-5.29"/>
	<path class="st0" d="M417.9,496.11c0.72-0.65,3.87,3.46,5.91,5.38"/>
	<path class="st0" d="M450.37,953.1c-3.79-0.41-7.66-0.38-11.33-1.47c-1.39-0.41-2.35-3.42-3.5-5.25c1.76-0.79,3.71-2.66,5.24-2.17
		c3.47,1.12,6.72,3.39,10.06,5.19C450.68,950.65,450.52,951.87,450.37,953.1z"/>
	<path class="st0" d="M1472.94,472.97c-5.97,4.77-9.33,9.54-12.59,9.43c-2.81-0.1-5.51-5.75-8.25-8.95
		c2.7-3.82,5.17-10.28,8.15-10.71C1463.31,462.3,1466.86,467.74,1472.94,472.97z"/>
	<path class="st0" d="M760.85,467.37c-5.81,4.62-8.87,8.94-11.69,8.69c-2.26-0.2-6.06-6.16-5.86-9.18c0.21-3.21,4.15-7.92,6.8-8.34
		C752.52,458.16,755.39,462.62,760.85,467.37z"/>
	<path class="st0" d="M395.25,477.97c15.26,0,30.52,0,45.78,0c0.01,0.92,0.02,1.84,0.03,2.76c-15.24,0-30.48,0-45.72,0
		C395.31,479.81,395.28,478.89,395.25,477.97z"/>
	<path class="st0" d="M768.77,342.79c3.44,7.35,6.97,11.54,6.7,15.25c-0.26,3.59-4.09,8.76-6.94,9.56
		c-5.78,1.62-7.55-5.03-6.82-10.95C762.17,352.84,765.17,349.58,768.77,342.79z"/>
	<path class="st0" d="M121.25,386.12c-4.11,3.16-6.46,6.27-8.91,6.41c-1.66,0.1-5.17-4.69-4.85-6.06c0.77-3.25,3.19-7.81,5.18-8.03
		C114.83,378.22,117.26,382.31,121.25,386.12z"/>
	<path class="st0" d="M1722.57,686.19c-1.12,7.58-4.9,13.44-11.83,13.02c-7.47-0.46-11.17-7.06-10.93-16.73
		c0.24-9.54,4.47-14.11,11.65-13.99C1719.7,668.61,1721.99,675.73,1722.57,686.19z"/>
</g>
</svg>
